<?xml version="1.0" standalone="no"?>
<!DOCTYPE svg PUBLIC "-//W3C//DTD SVG 1.1//EN" "http://www.w3.org/Graphics/SVG/1.1/DTD/svg11.dtd" >
<svg>
<metadata>
Created by FontForge 20110222 at Sat Dec 10 19:23:25 2011
 By System Administrator
Free for personal use. Do not distribute. Please, report usage to ivan@neogrey.com. For commercial uses, email me at ivan@neogrey.com. Paypal donations are welcome at dphrag@gmail.com
</metadata>
<defs>
<font id="Arkitech" horiz-adv-x="1163" >
  <font-face 
    font-family="Arkitech"
    font-weight="400"
    font-stretch="normal"
    units-per-em="1000"
    panose-1="2 0 0 0 0 0 0 0 0 0"
    ascent="800"
    descent="-200"
    x-height="693"
    cap-height="693"
    bbox="-181 -256 2088 1024"
    underline-thickness="50"
    underline-position="-75"
    unicode-range="U+0020-FB02"
  />
<missing-glyph horiz-adv-x="375" 
 />
    <glyph glyph-name=".notdef" horiz-adv-x="375" 
 />
    <glyph glyph-name="space" unicode=" " horiz-adv-x="375" 
 />
    <glyph glyph-name="exclam" unicode="!" horiz-adv-x="389" 
d="M160 700h76v-490h-76v490zM160 124h76v-124h-76v124z" />
    <glyph glyph-name="quotedbl" unicode="&#x22;" horiz-adv-x="365" 
d="M169 510h-78v183h78v-183zM309 510h-78v183h78v-183z" />
    <glyph glyph-name="numbersign" unicode="#" horiz-adv-x="755" 
d="M629 353v-76h-123v-128h-76v128h-137v-128h-76v128h-123v76h123v136h-123v76h123v128h76v-128h137v128h76v-128h123v-76h-123v-136h123zM293 353h137v136h-137v-136z" />
    <glyph glyph-name="dollar" unicode="$" horiz-adv-x="1030" 
d="M730 385c106 0 192 -86 192 -192c0 -107 -85 -193 -192 -193h-92v-85h-76v85h-86v-85h-76v85h-301v76h301v233h-107c-105 0 -192 85 -192 192c0 108 85 194 192 194h107v84h76v-84h86v84h76v-84h276v-76h-276v-234h92zM562 619h-86v-234h86v234zM293 385h107v234h-107
c-66 0 -113 -53 -116 -116c5 -66 53 -118 116 -118zM476 76h86v233h-86v-233zM730 76c64 0 116 52 116 116c0 65 -51 117 -116 117h-92v-233h92z" />
    <glyph glyph-name="percent" unicode="%" horiz-adv-x="1134" 
d="M368 -11h-85l457 719h85zM903 0h-173c-41 0 -78 16 -105 43s-44 65 -44 106v15c0 83 67 149 149 150h173c82 0 149 -67 149 -150v-15c0 -81 -66 -149 -149 -149zM673 221c-14 -15 -23 -34 -23 -57v-15c0 -44 36 -80 80 -80h173c44 0 80 36 80 80v15c0 45 -36 81 -80 81
h-173c-22 0 -42 -9 -57 -24zM393 384h-173c-41 0 -78 16 -105 43s-44 65 -44 106v15c0 83 67 149 149 150h173c82 0 149 -67 149 -150v-15c0 -81 -66 -149 -149 -149zM163 605c-14 -15 -23 -34 -23 -57v-15c0 -44 36 -80 80 -80h173c44 0 80 36 80 80v15c0 45 -36 81 -80 81
h-173c-22 0 -42 -9 -57 -24z" />
    <glyph glyph-name="ampersand" unicode="&#x26;" horiz-adv-x="1134" 
d="M299 398h798v-76h-101v-322h-696c-125 0 -210 88 -210 199c0 64 34 123 85 159l-21 15c-41 33 -64 84 -64 135c0 145 132 185 213 185h688v-76h-688c-66 0 -137 -40 -137 -110c0 -66 71 -109 133 -109zM920 76v245h-622c-71 0 -132 -57 -132 -123c0 -24 28 -122 132 -122
h622z" />
    <glyph glyph-name="quoteright" unicode="&#x2019;" horiz-adv-x="286" 
d="M165 477h-85l61 223h85z" />
    <glyph glyph-name="parenleft" unicode="(" horiz-adv-x="475" 
d="M240 -62c-52 0 -93 34 -115 77c-14 26 -21 56 -21 89v486c0 44 13 83 36 114c24 31 60 52 100 52h108v-76h-108c-21 -2 -35 -13 -47 -36c-8 -15 -13 -33 -13 -54v-486c0 -27 9 -52 21 -67c11 -14 23 -22 39 -23h108v-76h-108z" />
    <glyph glyph-name="parenright" unicode=")" horiz-adv-x="479" 
d="M212 -62h-108v76h108c16 1 28 9 39 23c12 15 21 40 21 67v486c0 21 -5 39 -13 54c-12 23 -26 34 -47 36h-108v76h108c40 0 76 -21 100 -52c23 -31 36 -70 36 -114v-486c0 -33 -7 -63 -21 -89c-22 -43 -63 -77 -115 -77z" />
    <glyph glyph-name="asterisk" unicode="*" horiz-adv-x="479" 
d="M420 578v-57h-112l78 -79l-40 -41l-79 80v-111h-58v112l-79 -78l-41 40l79 79h-110v58h112l-79 79l41 41l80 -79v110h57v-112l79 79l41 -41l-80 -80h111z" />
    <glyph glyph-name="plus" unicode="+" horiz-adv-x="685" 
d="M580 380v-64h-217v-217h-64v217h-218v64h218v218h64v-218h217z" />
    <glyph glyph-name="comma" unicode="," horiz-adv-x="280" 
d="M167 -85h-86l29 175h86z" />
    <glyph glyph-name="hyphen" unicode="-" horiz-adv-x="675" 
d="M80 326v60h515v-60h-515z" />
    <glyph glyph-name="hyphen" unicode="&#xad;" horiz-adv-x="675" 
d="M80 326v60h515v-60h-515z" />
    <glyph glyph-name="period" unicode="." horiz-adv-x="272" 
d="M186 0h-86v90h86v-90z" />
    <glyph glyph-name="slash" unicode="/" horiz-adv-x="594" 
d="M149 -51h-76l407 799h76z" />
    <glyph glyph-name="zero" unicode="0" horiz-adv-x="1202" 
d="M831 0h-447c-157 0 -284 127 -284 284v127c0 156 127 284 284 284h447c157 0 285 -128 285 -284v-127c0 -157 -128 -284 -285 -284zM176 411v-127c0 -114 94 -208 208 -208h447c115 0 209 94 209 208v127c0 114 -94 208 -209 208h-447c-114 0 -208 -94 -208 -208z" />
    <glyph glyph-name="one" unicode="1" horiz-adv-x="422" 
d="M300 0h-75v564c-4 32 -29 50 -61 53h-100v76h104c67 0 129 -63 132 -123v-570z" />
    <glyph glyph-name="two" unicode="2" horiz-adv-x="1134" 
d="M1077 0h-978v165c0 83 70 144 151 158c215 36 553 85 699 106c15 2 29 7 40 19c4 4 6 9 8 16v99c-11 41 -40 53 -88 54h-648c-16 0 -44 -5 -59 -16c-19 -15 -24 -28 -25 -58v-89h-76v99c0 82 77 140 151 140h657c78 0 161 -46 164 -127v-109c0 -71 -70 -99 -133 -108
c-200 -29 -496 -70 -675 -102c-44 -8 -90 -42 -90 -80v-91h902v-76z" />
    <glyph glyph-name="three" unicode="3" horiz-adv-x="1142" 
d="M1039 346c29 -18 33 -43 33 -71v-148c-3 -25 -12 -52 -35 -78c-33 -36 -75 -49 -129 -49h-641c-26 0 -79 7 -110 30c-38 28 -57 68 -57 120v38h76v-38c1 -28 5 -42 23 -57c16 -13 37 -16 56 -17h653c27 0 44 5 56 11c16 9 32 21 32 44v143c0 26 -25 34 -46 34h-715v77
h716c17 0 45 11 45 34v140c-8 36 -45 58 -81 58h-659c-17 0 -41 -5 -55 -16c-20 -14 -25 -34 -25 -58v-38h-76v42c0 46 19 89 53 115c30 22 76 31 114 31h642c84 -2 156 -57 163 -126v-157c-2 -37 -14 -42 -33 -64z" />
    <glyph glyph-name="four" unicode="4" horiz-adv-x="1106" 
d="M948 693h76v-692h-76v257h-811c-16 0 -30 9 -36 23c-2 4 -2 8 -2 13c0 10 3 20 11 28l377 371h106l-365 -359h720v359z" />
    <glyph glyph-name="five" unicode="5" horiz-adv-x="1150" 
d="M1072 304v-175s-2 -129 -164 -129h-641c-1 0 -167 3 -167 154v74h76v-74c0 -71 89 -78 89 -78h643c37 0 88 16 88 56v172c0 14 -3 54 -44 54h-723s-129 8 -129 164v171h971v-76h-895v-95c0 -81 50 -88 56 -88h721s119 0 119 -130z" />
    <glyph glyph-name="six" unicode="6" horiz-adv-x="1167" 
d="M100 133v433c3 25 12 52 35 78c33 36 75 49 129 49h654c31 0 67 -9 97 -29c38 -29 57 -69 57 -121v-38h-76v38c0 21 -4 42 -23 57c-16 13 -39 17 -60 17h-649c-26 0 -44 -5 -55 -11c-20 -10 -31 -26 -33 -44v-176c8 3 16 6 24 8c6 1 12 2 19 2h735c7 0 118 -10 118 -122
v-128c0 -46 -19 -89 -54 -115c-31 -23 -68 -31 -106 -31h-648c-137 0 -164 97 -164 133zM176 274v-138c9 -37 47 -60 89 -60h665c24 2 46 9 57 29c8 15 9 24 9 34v135c0 44 -35 45 -42 45h-740c-7 0 -38 0 -38 -45z" />
    <glyph glyph-name="seven" unicode="7" horiz-adv-x="1054" 
d="M250 0h-151l790 509c13 10 19 29 19 46c0 32 -22 58 -55 62h-753v76h760c74 -9 124 -69 124 -139c0 -41 -17 -80 -50 -107z" />
    <glyph glyph-name="eight" unicode="8" horiz-adv-x="1142" 
d="M1072 567v-157c-2 -37 -14 -42 -33 -64c29 -18 33 -43 33 -71v-148c-3 -25 -12 -52 -35 -78c-33 -36 -75 -49 -129 -49h-644c-54 0 -96 13 -129 49c-23 26 -32 53 -35 78v148c0 28 4 53 33 71c-19 22 -31 27 -33 64v157c7 69 79 126 163 126h646c84 -2 156 -57 163 -126z
M996 131v143c0 26 -25 34 -46 34h-728c-21 0 -46 -8 -46 -34v-143c0 -23 16 -35 32 -44c12 -6 29 -11 56 -11h644c27 0 44 5 56 11c16 9 31 21 32 44zM996 419v140c-8 36 -45 58 -81 58h-658c-36 0 -73 -22 -81 -58v-140c0 -23 26 -34 45 -34h732c17 0 42 11 43 34z" />
    <glyph glyph-name="nine" unicode="9" 
d="M1072 560v-433c-3 -25 -12 -52 -35 -78c-33 -36 -75 -49 -129 -49h-654c-31 0 -67 9 -97 29c-38 29 -57 69 -57 121v38h76v-38c0 -21 4 -42 23 -57c16 -13 39 -17 60 -17h649c26 0 44 5 55 11c20 10 31 26 33 44v176c-8 -3 -16 -6 -24 -8c-6 -1 -12 -2 -19 -2h-735
c-7 0 -118 10 -118 122v128c0 46 19 89 54 115c31 23 68 31 106 31h648c137 0 164 -97 164 -133zM996 419v138c-9 37 -47 60 -89 60h-665c-37 0 -66 -30 -66 -63v-135c0 -44 35 -45 42 -45h740c7 0 38 0 38 45z" />
    <glyph glyph-name="colon" unicode=":" horiz-adv-x="272" 
d="M100 124h80v-124h-80v124zM100 414h80v-124h-80v124z" />
    <glyph glyph-name="semicolon" unicode=";" horiz-adv-x="305" 
d="M215 291h-92v89h92v-89zM145 -114h-65l55 203h65z" />
    <glyph glyph-name="semicolon" unicode="&#x37e;" horiz-adv-x="305" 
d="M215 291h-92v89h92v-89zM145 -114h-65l55 203h65z" />
    <glyph glyph-name="less" unicode="&#x3c;" horiz-adv-x="625" 
d="M571 78l-500 251v68l500 252v-86l-398 -200l401 -201z" />
    <glyph glyph-name="equal" unicode="=" horiz-adv-x="675" 
d="M80 206v70h505v-70h-505zM80 406v70h505v-70h-505z" />
    <glyph glyph-name="greater" unicode="&#x3e;" horiz-adv-x="617" 
d="M574 329l-500 -251l-3 84l401 201l-398 200v86l500 -252v-68z" />
    <glyph glyph-name="question" unicode="?" horiz-adv-x="1035" 
d="M886 471v74c0 12 -4 72 -88 72h-534c-84 0 -88 -60 -88 -74v-89h-76v89c0 141 124 150 158 150h540c23 0 164 -6 164 -150v-79c0 -110 -117 -113 -117 -113h-289c-79 0 -82 -67 -82 -80v-98h-76v98c0 150 134 156 159 156h283s46 3 46 44zM399 0h76v113h-76v-113z" />
    <glyph glyph-name="at" unicode="@" horiz-adv-x="1240" 
d="M937 350v-135h110v135c0 198 -54 292 -313 292h-248c-259 0 -313 -94 -313 -292c0 -190 51 -292 313 -292h624v-58h-632c-312 0 -368 151 -368 350s56 350 368 350h264c312 0 368 -151 368 -350v-192h-617c-173 0 -210 67 -210 192c0 126 39 192 213 192h228
c174 0 213 -66 213 -192zM498 215h377v135c0 99 -23 135 -143 135h-244c-120 0 -143 -36 -143 -135c0 -95 20 -135 153 -135z" />
    <glyph glyph-name="bracketleft" unicode="[" horiz-adv-x="411" 
d="M307 -75h-206v843h196v-76h-120v-691h130v-76z" />
    <glyph glyph-name="backslash" unicode="\" horiz-adv-x="578" 
d="M116 750l412 -800h-66l-412 800h66z" />
    <glyph glyph-name="bracketright" unicode="]" horiz-adv-x="442" 
d="M307 -75h-206v76h130v691h-131v76h207v-843z" />
    <glyph glyph-name="asciicircum" unicode="^" horiz-adv-x="652" 
d="M288 700h76l248 -461h-68l-218 411l-218 -411h-68z" />
    <glyph glyph-name="underscore" unicode="_" horiz-adv-x="1000" 
d="M0 -130v60h1000v-60h-1000z" />
    <glyph glyph-name="quoteleft" unicode="&#x2018;" horiz-adv-x="286" 
d="M226 477h-85l-61 223h85z" />
    <glyph glyph-name="a" unicode="a" horiz-adv-x="1083" 
d="M990 -1l-668 1c-90 0 -169 50 -204 128c-12 26 -18 54 -18 83c0 119 102 212 218 212h596v47c-1 81 -68 146 -148 147h-503v76h503c124 0 223 -100 224 -223v-471zM240 323c-40 -25 -64 -65 -64 -112c1 -76 66 -135 142 -135h596v271h-592c-30 0 -59 -9 -82 -24z" />
    <glyph glyph-name="b" unicode="b" horiz-adv-x="1105" 
d="M945 373l-21 -15c51 -36 85 -95 85 -159c0 -111 -99 -199 -210 -199h-699v693h696c81 0 160 -39 195 -111c12 -24 18 -49 18 -74c0 -51 -23 -102 -64 -135zM176 617v-219h624c62 0 133 43 133 109c0 70 -71 110 -137 110h-620zM923 152c7 15 10 31 10 46
c0 66 -61 123 -132 123h-625v-245h625c51 0 102 31 122 76z" />
    <glyph glyph-name="c" unicode="c" horiz-adv-x="1034" 
d="M184 83c-52 52 -84 123 -84 201v125c0 156 128 284 285 284h584v-76h-584c-115 0 -208 -94 -209 -208v-125c0 -113 93 -208 207 -208h586v-76h-584c-78 0 -150 32 -201 83z" />
    <glyph glyph-name="d" unicode="d" horiz-adv-x="1068" 
d="M100 0v693h619c157 0 284 -129 284 -284v-125c0 -157 -129 -284 -284 -284h-619zM927 284v127c0 113 -95 206 -208 206h-543v-541h545c112 0 206 94 206 208z" />
    <glyph glyph-name="e" unicode="e" horiz-adv-x="1088" 
d="M101 173v310c1 118 104 209 223 209h468c117 0 219 -95 219 -212c0 -119 -104 -212 -223 -212h-611v-95c10 -68 77 -97 147 -97h634v-76h-639c-102 0 -214 65 -218 173zM324 616c-59 0 -147 -56 -147 -133v-139h615c76 0 143 60 143 136c0 78 -70 136 -147 136h-464z" />
    <glyph glyph-name="f" unicode="f" horiz-adv-x="1033" 
d="M237 555c-38 -37 -61 -89 -61 -147v-27h747v-76h-747v-305h-76v408c0 79 32 150 83 201c52 52 123 84 201 84h584v-76h-584c-57 0 -109 -24 -147 -62z" />
    <glyph glyph-name="h" unicode="h" horiz-adv-x="1017" 
d="M868 609c52 -51 84 -123 84 -201v-408h-76v408c-1 115 -94 209 -209 209h-283c-114 -1 -208 -94 -208 -209v-408h-76v859h76v-258c2 3 5 6 7 8c52 52 123 84 201 84h283c78 0 150 -32 201 -84z" />
    <glyph glyph-name="i" unicode="i" horiz-adv-x="265" 
d="M176 0h-76v693h76v-693z" />
    <glyph glyph-name="j" unicode="j" horiz-adv-x="1060" 
d="M224 617v76h728v-409c0 -78 -32 -149 -84 -201c-51 -51 -122 -83 -200 -83h-283c-79 0 -150 32 -201 83c-52 52 -84 123 -84 201v59h76v-59c0 -113 93 -208 207 -208h285c113 0 208 93 208 206v335h-652z" />
    <glyph glyph-name="k" unicode="k" horiz-adv-x="1087" 
d="M739 384c138 -21 241 -140 241 -281v-103h-76v105c0 113 -95 206 -208 206h-520v-311h-76v701h76v-313h465l266 314h105z" />
    <glyph glyph-name="l" unicode="l" horiz-adv-x="969" 
d="M100 693h76v-408c0 -58 23 -110 61 -147c38 -38 90 -62 147 -62h584v-76h-584c-78 0 -149 32 -201 84c-51 51 -83 122 -83 201v408z" />
    <glyph glyph-name="m" unicode="m" horiz-adv-x="1508" 
d="M1159 693c156 0 284 -128 284 -285v-408h-76v408c0 113 -93 209 -206 209h-384v-617h-76v617h-525v-617h-76v693h1059z" />
    <glyph glyph-name="n" unicode="n" horiz-adv-x="1017" 
d="M100 693h568c156 0 284 -128 284 -285v-408h-76v408c0 113 -93 209 -206 209h-494v-617h-76v693z" />
    <glyph glyph-name="p" unicode="p" horiz-adv-x="1111" 
d="M177 269v-269h-77v693h728c115 0 218 -97 218 -212c0 -118 -106 -212 -223 -212h-646zM177 345h648c77 0 143 61 145 136c-2 76 -69 136 -147 136h-646v-272z" />
    <glyph glyph-name="q" unicode="q" horiz-adv-x="1248" 
d="M676 -150h-76v150h-216c-157 0 -284 127 -284 284v127c0 156 127 284 284 284h514c157 0 285 -128 285 -284v-127c0 -157 -128 -284 -285 -284h-222v-150zM176 411v-127c0 -114 94 -208 208 -208h216v137h76v-137h222c115 0 209 94 209 208v127c0 114 -94 208 -209 208
h-514c-114 0 -208 -94 -208 -208z" />
    <glyph glyph-name="r" unicode="r" horiz-adv-x="890" 
d="M176 0h-76v409c0 156 127 284 284 284h514v-76h-514c-114 0 -208 -94 -208 -208v-409z" />
    <glyph glyph-name="s" unicode="s" horiz-adv-x="1018" 
d="M761 0h-661v76h661c64 0 116 52 116 116c0 65 -51 117 -116 117h-507c-105 0 -192 85 -192 192c0 108 85 193 192 194h661v-76h-661c-66 0 -113 -53 -116 -116c5 -66 53 -118 116 -118h507c106 0 192 -86 192 -192c0 -107 -85 -193 -192 -193z" />
    <glyph glyph-name="t" unicode="t" horiz-adv-x="1043" 
d="M838 596v-76h-662v-235c0 -58 23 -110 61 -147c38 -38 90 -62 147 -62h584v-76h-584c-78 0 -149 32 -201 84c-51 51 -83 122 -83 201v408h76v-97h662z" />
    <glyph glyph-name="u" unicode="u" horiz-adv-x="1031" 
d="M952 0h-568c-156 0 -284 128 -284 285v408h76v-408c0 -113 93 -209 206 -209h494v617h76v-693z" />
    <glyph glyph-name="v" unicode="v" horiz-adv-x="1172" 
d="M580 0h-19h-23l-524 693h95l450 -596l455 596h96z" />
    <glyph glyph-name="w" unicode="w" horiz-adv-x="1508" 
d="M384 0c-156 0 -284 128 -284 285v408h76v-408c0 -113 93 -209 206 -209h384v617h76v-617h525v617h76v-693h-1059z" />
    <glyph glyph-name="x" unicode="x" 
d="M737 324h-311c-193 0 -231 -54 -231 -195v-129h-65v135c0 129 42 192 148 220c-100 23 -148 98 -148 231v114h65v-104c0 -153 40 -210 231 -210h311c191 0 231 57 231 210v104h65v-114c0 -133 -48 -208 -148 -231c106 -28 148 -91 148 -220v-135h-65v129
c0 141 -38 195 -231 195z" />
    <glyph glyph-name="y" unicode="y" horiz-adv-x="1017" 
d="M876 693h76v-409c0 -156 -127 -284 -284 -284h-514v76h514c114 0 208 94 208 208v16h-492c-156 0 -284 128 -284 285v108h76v-108c0 -113 93 -209 206 -209h494v317z" />
    <glyph glyph-name="z" unicode="z" horiz-adv-x="1131" 
d="M1055 0h-954v77l821 541h-819v76h966v-71l-831 -547h817v-76z" />
    <glyph glyph-name="braceleft" unicode="{" horiz-adv-x="626" 
d="M306 251v-98c0 -111 15 -141 128 -141h92v-62h-108c-142 0 -177 59 -177 192v103c0 55 -21 87 -97 87h-99v58h99c76 0 97 32 97 87v81c0 133 35 192 177 192h108v-62h-92c-113 0 -128 -30 -128 -141v-76c0 -75 -32 -104 -101 -109v-2c69 -5 101 -34 101 -109z" />
    <glyph glyph-name="bar" unicode="|" horiz-adv-x="425" 
d="M180 -50v800h65v-800h-65z" />
    <glyph glyph-name="braceright" unicode="}" horiz-adv-x="626" 
d="M320 153v98c0 75 32 104 101 109v2c-69 5 -101 34 -101 109v76c0 111 -15 141 -128 141h-92v62h108c142 0 177 -59 177 -192v-81c0 -53 19 -84 86 -87h110v-58h-99c-76 0 -97 -32 -97 -87v-103c0 -133 -35 -192 -177 -192h-108v62h92c113 0 128 30 128 141z" />
    <glyph glyph-name="asciitilde" unicode="~" horiz-adv-x="705" 
d="M581 467c-29 0 -61 8 -93 25l-234 119c-19 10 -35 14 -48 14c-12 0 -29 -4 -29 -43v-98h-77v91c0 40 10 70 29 90c18 18 43 28 72 28s61 -9 93 -25l234 -119c20 -10 36 -15 48 -15s29 5 29 43v99h77v-92c0 -39 -10 -69 -29 -89c-18 -19 -43 -28 -72 -28z" />
    <glyph glyph-name="exclamdown" unicode="&#xa1;" horiz-adv-x="389" 
d="M229 0h-69v490h69v-490zM229 576h-69v124h69v-124z" />
    <glyph glyph-name="sterling" unicode="&#xa3;" horiz-adv-x="1126" 
d="M292 76h731v-76h-900v76c99 0 114 29 115 137h-97v76h97v44h-97v76h97v5c0 156 127 284 284 284h476v-76h-476c-114 0 -208 -94 -208 -208v-5h537v-76h-537v-44h537v-76h-537c-1 -60 -7 -105 -22 -137z" />
    <glyph glyph-name="fraction" unicode="&#x2044;" horiz-adv-x="782" 
d="M30 0l647 700h75l-647 -700h-75z" />
    <glyph glyph-name="fraction" unicode="&#x2215;" horiz-adv-x="782" 
d="M30 0l647 700h75l-647 -700h-75z" />
    <glyph glyph-name="quotesingle" unicode="'" horiz-adv-x="225" 
d="M145 477h-65v223h65v-223z" />
    <glyph glyph-name="quotedblleft" unicode="&#x201c;" horiz-adv-x="476" 
d="M406 477h-85l-61 223h85zM226 477h-85l-61 223h85z" />
    <glyph glyph-name="fi" unicode="&#xfb01;" horiz-adv-x="1179" 
d="M237 555c-38 -37 -61 -89 -61 -147v-27h747v-76h-747v-305h-76v408c0 79 32 150 83 201c52 52 123 84 201 84h584v-76h-584c-57 0 -109 -24 -147 -62zM1016 0h76v693h-76v-693z" />
    <glyph glyph-name="endash" unicode="&#x2013;" horiz-adv-x="951" 
d="M80 326v60h791v-60h-791z" />
    <glyph glyph-name="dagger" unicode="&#x2020;" horiz-adv-x="515" 
d="M70 500v56h158v144h59v-144h158v-56h-158v-297h-59v297h-158z" />
    <glyph glyph-name="daggerdbl" unicode="&#x2021;" horiz-adv-x="515" 
d="M70 515v56h158v129h59v-129h158v-56h-158v-127h158v-56h-158v-129h-59v129h-158v56h158v127h-158z" />
    <glyph glyph-name="periodcentered" unicode="&#xb7;" horiz-adv-x="292" 
d="M192 291h-92v89h92v-89z" />
    <glyph glyph-name="periodcentered" unicode="&#x2219;" horiz-adv-x="292" 
d="M192 291h-92v89h92v-89z" />
    <glyph glyph-name="bullet" unicode="&#x2022;" horiz-adv-x="470" 
d="M80 350c0 86 69 155 155 155s155 -69 155 -155s-69 -155 -155 -155s-155 69 -155 155zM235 459c-60 0 -109 -49 -109 -109s49 -109 109 -109s109 49 109 109s-49 109 -109 109z" />
    <glyph glyph-name="quotesinglbase" unicode="&#x201a;" horiz-adv-x="280" 
d="M145 -114h-65l55 203h65z" />
    <glyph glyph-name="quotedblbase" unicode="&#x201e;" horiz-adv-x="510" 
d="M145 -114h-65l55 203h65zM375 -114h-65l55 203h65z" />
    <glyph glyph-name="quotedblright" unicode="&#x201d;" horiz-adv-x="491" 
d="M165 477h-85l61 223h85zM345 477h-85l61 223h85z" />
    <glyph glyph-name="ellipsis" unicode="&#x2026;" horiz-adv-x="776" 
d="M182 0h-92v89h92v-89zM434 0h-92v89h92v-89zM686 0h-92v89h92v-89z" />
    <glyph glyph-name="perthousand" unicode="&#x2030;" horiz-adv-x="1661" 
d="M368 -11h-85l457 719h85zM903 0h-173c-41 0 -78 16 -105 43s-44 65 -44 106v15c0 83 67 149 149 150h173c82 0 149 -67 149 -150v-15c0 -81 -66 -149 -149 -149zM673 221c-14 -15 -23 -34 -23 -57v-15c0 -44 36 -80 80 -80h173c44 0 80 36 80 80v15c0 45 -36 81 -80 81
h-173c-22 0 -42 -9 -57 -24zM393 384h-173c-41 0 -78 16 -105 43s-44 65 -44 106v15c0 83 67 149 149 150h173c82 0 149 -67 149 -150v-15c0 -81 -66 -149 -149 -149zM163 605c-14 -15 -23 -34 -23 -57v-15c0 -44 36 -80 80 -80h173c44 0 80 36 80 80v15c0 45 -36 81 -80 81
h-173c-22 0 -42 -9 -57 -24zM1423 0h-173c-41 0 -78 16 -105 43s-44 65 -44 106v15c0 83 67 149 149 150h173c82 0 149 -67 149 -150v-15c0 -81 -66 -149 -149 -149zM1193 221c-14 -15 -23 -34 -23 -57v-15c0 -44 36 -80 80 -80h173c44 0 80 36 80 80v15c0 45 -36 81 -80 81
h-173c-22 0 -42 -9 -57 -24z" />
    <glyph glyph-name="questiondown" unicode="&#xbf;" horiz-adv-x="1035" 
d="M886 222v-74c0 -12 -4 -72 -88 -72h-534c-84 0 -88 60 -88 74v89h-76v-89c0 -141 124 -150 158 -150h540c23 0 164 6 164 150v79c0 110 -117 113 -117 113h-289c-79 0 -82 67 -82 80v98h-76v-98c0 -150 134 -156 159 -156h283s46 -3 46 -44zM399 693h76v-113h-76v113z
" />
    <glyph glyph-name="grave" unicode="`" horiz-adv-x="521" 
d="M160 904l54 54l190 -189l-54 -54z" />
    <glyph glyph-name="acute" unicode="&#xb4;" horiz-adv-x="521" 
d="M357 958l54 -54l-190 -189l-54 54z" />
    <glyph glyph-name="circumflex" unicode="&#x2c6;" horiz-adv-x="784" 
d="M688 745l-284 135l-284 -135l-33 69l317 150l317 -150z" />
    <glyph glyph-name="tilde" unicode="&#x2dc;" horiz-adv-x="663" 
d="M535 716c-26 0 -55 7 -84 23l-211 107c-17 9 -31 12 -43 12c-11 0 -26 -3 -26 -38v-89h-69v90c0 36 9 63 26 81c16 16 39 25 65 25s55 -8 83 -23l211 -107c18 -9 32 -13 43 -13s26 4 26 38v89h70v-90c0 -35 -9 -62 -27 -80c-16 -17 -38 -25 -64 -25z" />
    <glyph glyph-name="macron" unicode="&#xaf;" horiz-adv-x="658" 
d="M100 761v76h463v-76h-463z" />
    <glyph glyph-name="macron" unicode="&#x2c9;" horiz-adv-x="658" 
d="M100 761v76h463v-76h-463z" />
    <glyph glyph-name="breve" unicode="&#x2d8;" horiz-adv-x="686" 
d="M219 833v-13c0 -38 30 -68 68 -68h168c37 0 69 30 69 68v13h59v-13c0 -69 -57 -127 -128 -127v0h-168c-35 0 -66 13 -90 37c-23 23 -37 55 -37 90v13h59z" />
    <glyph glyph-name="dotaccent" unicode="&#x2d9;" horiz-adv-x="332" 
d="M100 793v109h132v-109h-132z" />
    <glyph glyph-name="dieresis" unicode="&#xa8;" horiz-adv-x="593" 
d="M187 790h-86v90h86v-90zM477 790h-86v90h86v-90z" />
    <glyph glyph-name="ring" unicode="&#x2da;" horiz-adv-x="545" 
d="M373 697h-148c-35 0 -66 13 -90 37c-23 23 -37 55 -37 90v13c0 71 57 128 127 129h148c70 0 128 -58 128 -129v-13c0 -69 -57 -127 -128 -127zM177 886c-13 -13 -20 -30 -20 -49v-13c0 -38 30 -68 68 -68h148c37 0 69 30 69 68v13c0 38 -32 69 -69 69h-148
c-19 0 -36 -8 -48 -20z" />
    <glyph glyph-name="cedilla" unicode="&#xb8;" horiz-adv-x="477" 
d="M214 -240h-98v71h102c34 0 60 32 60 65v104h72v-104c0 -70 -60 -136 -136 -136z" />
    <glyph glyph-name="hungarumlaut" unicode="&#x2dd;" horiz-adv-x="772" 
d="M397 958l54 -54l-190 -189l-54 54zM617 958l54 -54l-190 -189l-54 54z" />
    <glyph glyph-name="ogonek" unicode="&#x2db;" horiz-adv-x="477" 
d="M407 -200h-195c-56 0 -112 41 -112 100v2c0 45 24 86 58 113l22 20h110l-83 -79c-15 -14 -30 -32 -30 -49c0 -4 1 -8 3 -12c8 -14 18 -16 35 -18h192v-77z" />
    <glyph glyph-name="caron" unicode="&#x2c7;" horiz-adv-x="784" 
d="M404 829l284 135l33 -69l-317 -150l-317 150l33 69z" />
    <glyph glyph-name="emdash" unicode="&#x2014;" horiz-adv-x="1229" 
d="M80 326v60h1069v-60h-1069z" />
    <glyph glyph-name="Lslash" unicode="&#x141;" horiz-adv-x="1033" 
d="M469 76h584v-76h-584c-78 0 -149 32 -201 84c-45 45 -75 105 -82 173l-186 -107l-38 66l223 127v350h76v-306l258 148l38 -66l-296 -169v-15c0 -58 23 -110 61 -147c38 -38 90 -62 147 -62z" />
    <glyph glyph-name="Oslash" unicode="&#xd8;" horiz-adv-x="1264" 
d="M897 696c157 0 285 -128 285 -284v-127c0 -157 -128 -284 -285 -284h-514c-157 0 -284 127 -284 284v127c0 156 127 284 284 284h514zM175 412v-127c0 -47 16 -91 43 -126l784 433c-31 18 -67 28 -105 28h-514c-114 0 -208 -94 -208 -208zM1106 285v127
c0 50 -19 97 -49 133l-787 -435c33 -21 72 -33 113 -33h514c115 0 208 94 209 208z" />
    <glyph glyph-name="OE" unicode="&#x152;" horiz-adv-x="1907" 
d="M1084 411v-29h723v-76h-723v-28c1 -112 95 -204 208 -204h515v-76h-515c-105 0 -197 58 -246 143c-49 -85 -141 -143 -247 -143h-414c-157 0 -284 128 -284 284v127c0 157 127 284 284 284h414c106 0 198 -58 247 -143c50 84 142 141 246 141h515v-76h-515
c-57 0 -109 -23 -147 -61c-37 -37 -60 -88 -61 -143zM1008 282v127c0 114 -94 208 -209 208h-414c-114 0 -208 -94 -208 -208v-127c0 -114 94 -208 208 -208h414c115 0 209 94 209 208z" />
    <glyph glyph-name="ae" unicode="&#xe6;" horiz-adv-x="1886" 
d="M980 172c10 -68 77 -97 147 -97h634v-76h-639c-50 0 -101 15 -142 43v-42h-668c-90 0 -169 50 -204 128c-12 26 -18 54 -18 83c0 119 102 212 218 212h596v47c-1 81 -68 147 -148 147h-503v76h503c77 0 144 -39 184 -97c41 58 111 95 187 95h468c117 0 219 -95 219 -212
c0 -119 -104 -212 -223 -212h-611v-95zM980 482v-139h615c76 0 143 60 143 136c0 78 -70 136 -147 136h-464c-59 0 -147 -56 -147 -133zM904 76v271h-592c-30 0 -59 -9 -82 -24c-40 -25 -64 -65 -64 -112c1 -76 66 -135 142 -135h596z" />
    <glyph glyph-name="dotlessi" unicode="&#x131;" horiz-adv-x="241" 
d="M176 0h-76v693h76v-693z" />
    <glyph glyph-name="lslash" unicode="&#x142;" horiz-adv-x="1069" 
d="M469 76h584v-76h-584c-78 0 -149 32 -201 84c-45 45 -75 105 -82 173l-186 -107l-38 66l223 127v350h76v-306l258 148l38 -66l-296 -169v-15c0 -58 23 -110 61 -147c38 -38 90 -62 147 -62z" />
    <glyph glyph-name="oslash" unicode="&#xf8;" horiz-adv-x="1264" 
d="M897 696c157 0 285 -128 285 -284v-127c0 -157 -128 -284 -285 -284h-514c-157 0 -284 127 -284 284v127c0 156 127 284 284 284h514zM175 412v-127c0 -47 16 -91 43 -126l784 433c-31 18 -67 28 -105 28h-514c-114 0 -208 -94 -208 -208zM1106 285v127
c0 50 -19 97 -49 133l-787 -435c33 -21 72 -33 113 -33h514c115 0 208 94 209 208z" />
    <glyph glyph-name="oe" unicode="&#x153;" horiz-adv-x="2017" 
d="M1063 173c10 -68 77 -97 147 -97h634v-76h-639c-80 0 -167 40 -202 110c-52 -67 -133 -110 -225 -110h-394c-157 0 -284 128 -284 284v125c0 157 127 284 284 284h394c96 0 181 -47 232 -120c38 70 115 117 200 117h468c117 0 219 -95 219 -212
c0 -119 -104 -210 -223 -210h-611v-95zM1063 481v-137h615c76 0 143 58 143 134c0 78 -70 136 -147 136h-464c-59 0 -147 -56 -147 -133zM987 284v125c0 114 -94 208 -209 208h-394c-114 0 -208 -94 -208 -208v-125c0 -114 94 -208 208 -208h394c115 0 209 94 209 208z" />
    <glyph glyph-name="germandbls" unicode="&#xdf;" horiz-adv-x="2188" 
 />
    <glyph glyph-name="Eth" unicode="&#xd0;" horiz-adv-x="1233" 
d="M863 693c157 0 284 -129 284 -284v-125c0 -157 -129 -284 -284 -284h-619v309h-193v76h193v308h619zM1071 284v127c0 113 -95 206 -208 206h-543v-232h245v-76h-245v-233h545c112 0 206 94 206 208z" />
    <glyph glyph-name="onehalf" unicode="&#xbd;" horiz-adv-x="1120" 
 />
    <glyph glyph-name="Thorn" unicode="&#xde;" horiz-adv-x="1135" 
 />
    <glyph glyph-name="onequarter" unicode="&#xbc;" horiz-adv-x="1108" 
 />
    <glyph glyph-name="thorn" unicode="&#xfe;" horiz-adv-x="1135" 
d="M215 0h-65v700h65v-90h546c210 0 284 -76 284 -208c0 -174 -88 -220 -279 -220h-551v-182zM215 548v-304h536c171 0 225 24 225 157c0 105 -57 147 -228 147h-533z" />
    <glyph glyph-name="threequarters" unicode="&#xbe;" horiz-adv-x="1268" 
 />
    <glyph glyph-name="twosuperior" unicode="&#xb2;" horiz-adv-x="591" 
 />
    <glyph glyph-name="eth" unicode="&#xf0;" horiz-adv-x="1233" 
d="M863 693c157 0 284 -129 284 -284v-125c0 -157 -129 -284 -284 -284h-619v309h-193v76h193v308h619zM1071 284v127c0 113 -95 206 -208 206h-543v-232h245v-76h-245v-233h545c112 0 206 94 206 208z" />
    <glyph glyph-name="threesuperior" unicode="&#xb3;" horiz-adv-x="591" 
 />
    <glyph glyph-name="copyright" unicode="&#xa9;" horiz-adv-x="1220" 
d="M865 542v-57h-377c-120 0 -143 -36 -143 -135c0 -95 20 -135 153 -135h367v-57h-372c-173 0 -210 67 -210 192c0 126 39 192 213 192h369zM486 58h248c262 0 313 102 313 292c0 198 -54 292 -313 292h-248c-259 0 -313 -94 -313 -292c0 -190 51 -292 313 -292zM742 0
h-264c-312 0 -368 151 -368 350s56 350 368 350h264c312 0 368 -151 368 -350s-56 -350 -368 -350z" />
    <glyph glyph-name="Aacute" unicode="&#xc1;" horiz-adv-x="1072" 
d="M623 960l54 -54l-190 -189l-54 54zM923 610c51 -52 83 -123 83 -201v-409h-76v318h-754v-318h-76v409c0 157 129 284 284 284h338c78 0 149 -32 201 -83zM176 394h754v17c0 113 -95 206 -208 206h-340c-112 0 -206 -94 -206 -208v-15z" />
    <glyph glyph-name="Acircumflex" unicode="&#xc2;" horiz-adv-x="1072" 
d="M832 717l-284 135l-284 -135l-33 69l317 150l317 -150zM923 610c51 -52 83 -123 83 -201v-409h-76v318h-754v-318h-76v409c0 157 129 284 284 284h338c78 0 149 -32 201 -83zM176 394h754v17c0 113 -95 206 -208 206h-340c-112 0 -206 -94 -206 -208v-15z" />
    <glyph glyph-name="Adieresis" unicode="&#xc4;" horiz-adv-x="1076" 
d="M923 610c51 -52 83 -123 83 -201v-409h-76v318h-754v-318h-76v409c0 157 129 284 284 284h338c78 0 149 -32 201 -83zM176 394h754v17c0 113 -95 206 -208 206h-340c-112 0 -206 -94 -206 -208v-15zM456 790h-86v90h86v-90zM746 790h-86v90h86v-90z" />
    <glyph glyph-name="Agrave" unicode="&#xc0;" horiz-adv-x="1072" 
d="M406 906l54 54l190 -189l-54 -54zM923 610c51 -52 83 -123 83 -201v-409h-76v318h-754v-318h-76v409c0 157 129 284 284 284h338c78 0 149 -32 201 -83zM176 394h754v17c0 113 -95 206 -208 206h-340c-112 0 -206 -94 -206 -208v-15z" />
    <glyph glyph-name="Aring" unicode="&#xc5;" horiz-adv-x="1071" 
d="M923 610c51 -52 83 -123 83 -201v-409h-76v318h-754v-318h-76v409c0 157 129 284 284 284h338c78 0 149 -32 201 -83zM176 394h754v17c0 113 -95 206 -208 206h-340c-112 0 -206 -94 -206 -208v-15zM608 724h-130c-31 0 -59 11 -80 32c-20 21 -32 49 -32 80v12
c0 62 50 113 112 114h130c62 0 114 -52 114 -114v-12c0 -61 -51 -112 -114 -112zM435 891c-11 -12 -17 -27 -17 -43v-12c0 -34 26 -60 60 -60h130c33 0 61 26 61 60v12c0 33 -28 61 -61 61h-130c-17 0 -32 -7 -43 -18z" />
    <glyph glyph-name="Atilde" unicode="&#xc3;" horiz-adv-x="1072" 
d="M703 736c-26 0 -55 7 -84 23l-211 107c-17 9 -31 12 -43 12c-11 0 -26 -3 -26 -38v-89h-69v90c0 36 9 63 26 81c16 16 39 25 65 25s55 -8 83 -23l211 -107c18 -9 32 -13 43 -13s26 4 26 38v89h70v-90c0 -35 -9 -62 -27 -80c-16 -17 -38 -25 -64 -25zM923 610
c51 -52 83 -123 83 -201v-409h-76v318h-754v-318h-76v409c0 157 129 284 284 284h338c78 0 149 -32 201 -83zM176 394h754v17c0 113 -95 206 -208 206h-340c-112 0 -206 -94 -206 -208v-15z" />
    <glyph glyph-name="Ccedilla" unicode="&#xc7;" horiz-adv-x="1143" 
d="M519 -238h-98v71h102c34 0 60 32 60 65v104h72v-104c0 -70 -60 -136 -136 -136zM184 83c51 -51 123 -83 201 -83h584v76h-586c-114 0 -207 95 -207 208v125c1 114 94 208 209 208h584v76h-584c-157 0 -285 -128 -285 -284v-125c0 -78 32 -149 84 -201z" />
    <glyph glyph-name="Eacute" unicode="&#xc9;" horiz-adv-x="1057" 
d="M675 960l54 -54l-190 -189l-54 54zM237 556c-38 -38 -61 -90 -61 -147v-25h793v-76h-793v-26c0 -113 95 -206 208 -206h585v-76h-585c-157 0 -284 129 -284 284v125c0 157 129 284 284 284h585v-76h-585c-57 0 -109 -23 -147 -61z" />
    <glyph glyph-name="Ecircumflex" unicode="&#xca;" horiz-adv-x="1057" 
d="M873 747l-284 135l-284 -135l-33 69l317 150l317 -150zM237 556c-38 -38 -61 -90 -61 -147v-25h793v-76h-793v-26c0 -113 95 -206 208 -206h585v-76h-585c-157 0 -284 129 -284 284v125c0 157 129 284 284 284h585v-76h-585c-57 0 -109 -23 -147 -61z" />
    <glyph glyph-name="Edieresis" unicode="&#xcb;" horiz-adv-x="1057" 
d="M503 809h-86v90h86v-90zM793 809h-86v90h86v-90zM237 556c-38 -38 -61 -90 -61 -147v-25h793v-76h-793v-26c0 -113 95 -206 208 -206h585v-76h-585c-157 0 -284 129 -284 284v125c0 157 129 284 284 284h585v-76h-585c-57 0 -109 -23 -147 -61z" />
    <glyph glyph-name="Egrave" unicode="&#xc8;" horiz-adv-x="1057" 
d="M424 906l54 54l190 -189l-54 -54zM237 556c-38 -38 -61 -90 -61 -147v-25h793v-76h-793v-26c0 -113 95 -206 208 -206h585v-76h-585c-157 0 -284 129 -284 284v125c0 157 129 284 284 284h585v-76h-585c-57 0 -109 -23 -147 -61z" />
    <glyph glyph-name="Iacute" unicode="&#xcd;" horiz-adv-x="241" 
d="M176 0h-76v693h76v-693zM187 958l54 -54l-190 -189l-54 54z" />
    <glyph glyph-name="Icircumflex" unicode="&#xce;" horiz-adv-x="241" 
d="M176 0h-76v693h76v-693zM426 724l-284 135l-284 -135l-33 69l317 150l317 -150z" />
    <glyph glyph-name="Idieresis" unicode="&#xcf;" horiz-adv-x="463" 
d="M264 0h-65v700h65v-700zM35 810v89h97v-89h-97zM331 810v89h97v-89h-97z" />
    <glyph glyph-name="Igrave" unicode="&#xcc;" horiz-adv-x="241" 
d="M100 0h76v693h-76v-693zM0 904l54 54l190 -189l-54 -54z" />
    <glyph glyph-name="Ntilde" unicode="&#xd1;" 
d="M738 736c-26 0 -55 7 -84 23l-211 107c-17 9 -31 12 -43 12c-11 0 -26 -3 -26 -38v-89h-69v90c0 36 9 63 26 81c16 16 39 25 65 25s55 -8 83 -23l211 -107c18 -9 32 -13 43 -13s26 4 26 38v89h70v-90c0 -35 -9 -62 -27 -80c-16 -17 -38 -25 -64 -25zM811 6
c-18 8 -29 15 -47 37l-477 562c-12 14 -29 20 -47 20c-31 0 -63 -19 -64 -54v-571h-76v578l1 3c5 76 74 121 141 121c39 0 78 -15 104 -49l477 -562c12 -14 30 -21 47 -21c30 0 60 20 63 55v570h77v-577c-9 -75 -73 -125 -141 -125c-19 0 -39 4 -58 13z" />
    <glyph glyph-name="Oacute" unicode="&#xd3;" horiz-adv-x="1224" 
d="M759 960l54 -54l-190 -189l-54 54zM898 0h-514c-157 0 -284 127 -284 284v125c0 156 127 284 284 284h514c157 0 285 -128 285 -284v-125c0 -157 -128 -284 -285 -284zM176 409v-125c0 -114 94 -208 208 -208h514c115 0 209 94 209 208v125c0 114 -94 208 -209 208h-514
c-114 0 -208 -94 -208 -208z" />
    <glyph glyph-name="Ocircumflex" unicode="&#xd4;" horiz-adv-x="1224" 
d="M908 747l-284 135l-284 -135l-33 69l317 150l317 -150zM898 0h-514c-157 0 -284 127 -284 284v125c0 156 127 284 284 284h514c157 0 285 -128 285 -284v-125c0 -157 -128 -284 -285 -284zM176 409v-125c0 -114 94 -208 208 -208h514c115 0 209 94 209 208v125
c0 114 -94 208 -209 208h-514c-114 0 -208 -94 -208 -208z" />
    <glyph glyph-name="Odieresis" unicode="&#xd6;" horiz-adv-x="1224" 
d="M533 809h-86v90h86v-90zM823 809h-86v90h86v-90zM898 0h-514c-157 0 -284 127 -284 284v125c0 156 127 284 284 284h514c157 0 285 -128 285 -284v-125c0 -157 -128 -284 -285 -284zM176 409v-125c0 -114 94 -208 208 -208h514c115 0 209 94 209 208v125
c0 114 -94 208 -209 208h-514c-114 0 -208 -94 -208 -208z" />
    <glyph glyph-name="Ograve" unicode="&#xd2;" horiz-adv-x="1224" 
d="M462 906l54 54l190 -189l-54 -54zM384 0h514c157 0 285 127 285 284v125c0 156 -128 284 -285 284h-514c-157 0 -284 -128 -284 -284v-125c0 -157 127 -284 284 -284zM176 409c0 114 94 208 208 208h514c115 0 209 -94 209 -208v-125c0 -114 -94 -208 -209 -208h-514
c-114 0 -208 94 -208 208v125z" />
    <glyph glyph-name="Otilde" unicode="&#xd5;" horiz-adv-x="1224" 
d="M779 736c-26 0 -55 7 -84 23l-211 107c-17 9 -31 12 -43 12c-11 0 -26 -3 -26 -38v-89h-69v90c0 36 9 63 26 81c16 16 39 25 65 25s55 -8 83 -23l211 -107c18 -9 32 -13 43 -13s26 4 26 38v89h70v-90c0 -35 -9 -62 -27 -80c-16 -17 -38 -25 -64 -25zM898 0h-514
c-157 0 -284 127 -284 284v125c0 156 127 284 284 284h514c157 0 285 -128 285 -284v-125c0 -157 -128 -284 -285 -284zM176 409v-125c0 -114 94 -208 208 -208h514c115 0 209 94 209 208v125c0 114 -94 208 -209 208h-514c-114 0 -208 -94 -208 -208z" />
    <glyph glyph-name="Scaron" unicode="&#x160;" horiz-adv-x="1070" 
d="M505 831l284 135l33 -69l-317 -150l-317 150l33 69zM761 0c107 0 192 86 192 193c0 106 -86 192 -192 192h-507c-63 0 -111 52 -116 118c3 63 50 116 116 116h661v76h-661c-107 -1 -192 -86 -192 -194c0 -107 87 -192 192 -192h507c65 0 116 -52 116 -117
c0 -64 -52 -116 -116 -116h-661v-76h661z" />
    <glyph glyph-name="Uacute" unicode="&#xda;" horiz-adv-x="1062" 
d="M601 935l54 -54l-190 -189l-54 54zM184 83c-52 52 -84 123 -84 201v409h76v-409c0 -113 93 -208 207 -208h285c113 0 208 93 208 206v411h76v-409c0 -78 -32 -149 -84 -201c-51 -51 -122 -83 -200 -83h-283c-79 0 -150 32 -201 83z" />
    <glyph glyph-name="Ucircumflex" unicode="&#xdb;" horiz-adv-x="1084" 
d="M816 747l-284 135l-284 -135l-33 69l317 150l317 -150zM184 83c-52 52 -84 123 -84 201v409h76v-409c0 -113 93 -208 207 -208h285c113 0 208 93 208 206v411h76v-409c0 -78 -32 -149 -84 -201c-51 -51 -122 -83 -200 -83h-283c-79 0 -150 32 -201 83z" />
    <glyph glyph-name="Udieresis" unicode="&#xdc;" horiz-adv-x="1101" 
d="M424 610h-86v90h86v-90zM714 610h-86v90h86v-90zM184 83c-52 52 -84 123 -84 201v409h76v-409c0 -113 93 -208 207 -208h285c113 0 208 93 208 206v411h76v-409c0 -78 -32 -149 -84 -201c-51 -51 -122 -83 -200 -83h-283c-79 0 -150 32 -201 83z" />
    <glyph glyph-name="Ugrave" unicode="&#xd9;" horiz-adv-x="1029" 
d="M375 906l54 54l190 -189l-54 -54zM184 83c51 -51 122 -83 201 -83h283c78 0 149 32 200 83c52 52 84 123 84 201v409h-76v-411c0 -113 -95 -206 -208 -206h-285c-114 0 -207 95 -207 208v409h-76v-409c0 -78 32 -149 84 -201z" />
    <glyph glyph-name="Yacute" unicode="&#xdd;" horiz-adv-x="1086" 
d="M599 934l54 -54l-190 -189l-54 54zM567 0h-76v220h-106c-79 0 -150 32 -201 83c-52 52 -84 123 -84 201v189h76v-189c0 -113 93 -208 207 -208h285c113 0 208 93 208 206v191h76v-189c0 -78 -32 -149 -84 -201c-51 -51 -122 -83 -200 -83h-101v-220z" />
    <glyph glyph-name="Ydieresis" unicode="&#x178;" horiz-adv-x="1086" 
d="M429 610h-86v90h86v-90zM719 610h-86v90h86v-90zM567 0h-76v220h-106c-79 0 -150 32 -201 83c-52 52 -84 123 -84 201v189h76v-189c0 -113 93 -208 207 -208h285c113 0 208 93 208 206v191h76v-189c0 -78 -32 -149 -84 -201c-51 -51 -122 -83 -200 -83h-101v-220z" />
    <glyph glyph-name="Zcaron" unicode="&#x17d;" horiz-adv-x="1090" 
d="M522 831l284 135l33 -69l-317 -150l-317 150l33 69zM218 0h755v76h-754c-34 2 -55 33 -55 63c0 19 7 39 34 51l717 251s65 22 65 115c0 14 -13 137 -124 137h-760v-76h753c52 0 55 -51 55 -61c0 -43 -43 -52 -47 -56l-686 -239s-82 -22 -82 -118c0 -67 44 -143 129 -143z
" />
    <glyph glyph-name="aacute" unicode="&#xe1;" horiz-adv-x="1160" 
d="M990 -1l-668 1c-90 0 -169 50 -204 128c-12 26 -18 54 -18 83c0 119 102 212 218 212h596v47c-1 81 -68 146 -148 147h-503v76h503c124 0 223 -100 224 -223v-471zM240 323c-40 -25 -64 -65 -64 -112c1 -76 66 -135 142 -135h596v271h-592c-30 0 -59 -9 -82 -24zM717 960
l54 -54l-190 -189l-54 54z" />
    <glyph glyph-name="acircumflex" unicode="&#xe2;" horiz-adv-x="1160" 
d="M990 -1l-668 1c-90 0 -169 50 -204 128c-12 26 -18 54 -18 83c0 119 102 212 218 212h596v47c-1 81 -68 146 -148 147h-503v76h503c124 0 223 -100 224 -223v-471zM240 323c-40 -25 -64 -65 -64 -112c1 -76 66 -135 142 -135h596v271h-592c-30 0 -59 -9 -82 -24zM866 747
l-284 135l-284 -135l-33 69l317 150l317 -150z" />
    <glyph glyph-name="adieresis" unicode="&#xe4;" horiz-adv-x="1160" 
d="M990 -1l-668 1c-90 0 -169 50 -204 128c-12 26 -18 54 -18 83c0 119 102 212 218 212h596v47c-1 81 -68 146 -148 147h-503v76h503c124 0 223 -100 224 -223v-471zM240 323c-40 -25 -64 -65 -64 -112c1 -76 66 -135 142 -135h596v271h-592c-30 0 -59 -9 -82 -24zM471 776
h-86v90h86v-90zM761 776h-86v90h86v-90z" />
    <glyph glyph-name="agrave" unicode="&#xe0;" horiz-adv-x="1160" 
d="M322 0l668 -1v471c-1 123 -100 223 -224 223h-503v-76h503c80 -1 147 -66 148 -147v-47h-596c-116 0 -218 -93 -218 -212c0 -29 6 -57 18 -83c35 -78 114 -128 204 -128zM240 323c23 15 52 24 82 24h592v-271h-596c-76 0 -141 59 -142 135c0 47 24 87 64 112zM420 906
l54 54l190 -189l-54 -54z" />
    <glyph glyph-name="aring" unicode="&#xe5;" horiz-adv-x="1160" 
d="M990 -1l-668 1c-90 0 -169 50 -204 128c-12 26 -18 54 -18 83c0 119 102 212 218 212h596v47c-1 81 -68 146 -148 147h-503v76h503c124 0 223 -100 224 -223v-471zM240 323c-40 -25 -64 -65 -64 -112c1 -76 66 -135 142 -135h596v271h-592c-30 0 -59 -9 -82 -24zM656 755
h-148c-35 0 -66 13 -90 37c-23 23 -37 55 -37 90v13c0 71 57 128 127 129h148c70 0 128 -58 128 -129v-13c0 -69 -57 -127 -128 -127zM460 944c-13 -13 -20 -30 -20 -49v-13c0 -38 30 -68 68 -68h148c37 0 69 30 69 68v13c0 38 -32 69 -69 69h-148c-19 0 -36 -8 -48 -20z
" />
    <glyph glyph-name="atilde" unicode="&#xe3;" horiz-adv-x="1160" 
d="M990 -1l-668 1c-90 0 -169 50 -204 128c-12 26 -18 54 -18 83c0 119 102 212 218 212h596v47c-1 81 -68 146 -148 147h-503v76h503c124 0 223 -100 224 -223v-471zM240 323c-40 -25 -64 -65 -64 -112c1 -76 66 -135 142 -135h596v271h-592c-30 0 -59 -9 -82 -24zM737 736
c-26 0 -55 7 -84 23l-211 107c-17 9 -31 12 -43 12c-11 0 -26 -3 -26 -38v-89h-69v90c0 36 9 63 26 81c16 16 39 25 65 25s55 -8 83 -23l211 -107c18 -9 32 -13 43 -13s26 4 26 38v89h70v-90c0 -35 -9 -62 -27 -80c-16 -17 -38 -25 -64 -25z" />
    <glyph glyph-name="ccedilla" unicode="&#xe7;" horiz-adv-x="1143" 
d="M519 -240h-98v71h102c34 0 60 32 60 65v104h72v-104c0 -70 -60 -136 -136 -136zM184 83c51 -51 123 -83 201 -83h584v76h-586c-114 0 -207 95 -207 208v125c1 114 94 208 209 208h584v76h-584c-157 0 -285 -128 -285 -284v-125c0 -78 32 -149 84 -201z" />
    <glyph glyph-name="eacute" unicode="&#xe9;" horiz-adv-x="1064" 
d="M101 173v310c1 118 104 209 223 209h468c117 0 219 -95 219 -212c0 -119 -104 -212 -223 -212h-611v-95c10 -68 77 -97 147 -97h634v-76h-639c-102 0 -214 65 -218 173zM324 616c-59 0 -147 -56 -147 -133v-139h615c76 0 143 60 143 136c0 78 -70 136 -147 136h-464z
M607 958l54 -54l-190 -189l-54 54z" />
    <glyph glyph-name="ecircumflex" unicode="&#xea;" horiz-adv-x="1061" 
d="M102 173v310c1 118 104 209 223 209h468c117 0 219 -95 219 -212c0 -119 -104 -212 -223 -212h-611v-95c10 -68 77 -97 147 -97h634v-76h-639c-102 0 -214 65 -218 173zM325 616c-59 0 -147 -56 -147 -133v-139h615c76 0 143 60 143 136c0 78 -70 136 -147 136h-464z
M877 747l-284 135l-284 -135l-33 69l317 150l317 -150z" />
    <glyph glyph-name="edieresis" unicode="&#xeb;" horiz-adv-x="1061" 
d="M102 173v310c1 118 104 209 223 209h468c117 0 219 -95 219 -212c0 -119 -104 -212 -223 -212h-611v-95c10 -68 77 -97 147 -97h634v-76h-639c-102 0 -214 65 -218 173zM325 616c-59 0 -147 -56 -147 -133v-139h615c76 0 143 60 143 136c0 78 -70 136 -147 136h-464z
M434 807h-86v90h86v-90zM724 807h-86v90h86v-90z" />
    <glyph glyph-name="egrave" unicode="&#xe8;" horiz-adv-x="1152" 
d="M431 906l54 54l190 -189l-54 -54zM101 173v310c1 118 104 209 223 209h468c117 0 219 -95 219 -212c0 -119 -104 -212 -223 -212h-611v-95c10 -68 77 -97 147 -97h634v-76h-639c-102 0 -214 65 -218 173zM324 616c-59 0 -147 -56 -147 -133v-139h615c76 0 143 60 143 136
c0 78 -70 136 -147 136h-464z" />
    <glyph glyph-name="iacute" unicode="&#xed;" horiz-adv-x="265" 
d="M176 0h-76v693h76v-693zM207 958l54 -54l-190 -189l-54 54z" />
    <glyph glyph-name="icircumflex" unicode="&#xee;" horiz-adv-x="265" 
d="M176 0h-76v693h76v-693zM420 745l-284 135l-284 -135l-33 69l317 150l317 -150z" />
    <glyph glyph-name="idieresis" unicode="&#xef;" horiz-adv-x="265" 
d="M176 0h-76v693h76v-693zM37 790h-86v90h86v-90zM327 790h-86v90h86v-90z" />
    <glyph glyph-name="igrave" unicode="&#xec;" horiz-adv-x="265" 
d="M100 0h76v693h-76v-693zM18 904l54 54l190 -189l-54 -54z" />
    <glyph glyph-name="ntilde" unicode="&#xf1;" 
d="M100 693h568c156 0 284 -128 284 -285v-408h-76v408c0 113 -93 209 -206 209h-494v-617h-76v693zM656 736c-26 0 -55 7 -84 23l-211 107c-17 9 -31 12 -43 12c-11 0 -26 -3 -26 -38v-89h-69v90c0 36 9 63 26 81c16 16 39 25 65 25s55 -8 83 -23l211 -107
c18 -9 32 -13 43 -13s26 4 26 38v89h70v-90c0 -35 -9 -62 -27 -80c-16 -17 -38 -25 -64 -25z" />
    <glyph glyph-name="oacute" unicode="&#xf3;" horiz-adv-x="1224" 
d="M759 960l54 -54l-190 -189l-54 54zM898 0h-514c-157 0 -284 127 -284 284v125c0 156 127 284 284 284h514c157 0 285 -128 285 -284v-125c0 -157 -128 -284 -285 -284zM176 409v-125c0 -114 94 -208 208 -208h514c115 0 209 94 209 208v125c0 114 -94 208 -209 208h-514
c-114 0 -208 -94 -208 -208z" />
    <glyph glyph-name="ocircumflex" unicode="&#xf4;" horiz-adv-x="1224" 
d="M908 747l-284 135l-284 -135l-33 69l317 150l317 -150zM898 0h-514c-157 0 -284 127 -284 284v125c0 156 127 284 284 284h514c157 0 285 -128 285 -284v-125c0 -157 -128 -284 -285 -284zM176 409v-125c0 -114 94 -208 208 -208h514c115 0 209 94 209 208v125
c0 114 -94 208 -209 208h-514c-114 0 -208 -94 -208 -208z" />
    <glyph glyph-name="odieresis" unicode="&#xf6;" horiz-adv-x="1287" 
d="M898 0h-514c-157 0 -284 127 -284 284v125c0 156 127 284 284 284h514c157 0 285 -128 285 -284v-125c0 -157 -128 -284 -285 -284zM176 409v-125c0 -114 94 -208 208 -208h514c115 0 209 94 209 208v125c0 114 -94 208 -209 208h-514c-114 0 -208 -94 -208 -208z
M548 807h-86v90h86v-90zM838 807h-86v90h86v-90z" />
    <glyph glyph-name="ograve" unicode="&#xf2;" horiz-adv-x="1224" 
d="M462 906l54 54l190 -189l-54 -54zM384 0h514c157 0 285 127 285 284v125c0 156 -128 284 -285 284h-514c-157 0 -284 -128 -284 -284v-125c0 -157 127 -284 284 -284zM176 409c0 114 94 208 208 208h514c115 0 209 -94 209 -208v-125c0 -114 -94 -208 -209 -208h-514
c-114 0 -208 94 -208 208v125z" />
    <glyph glyph-name="otilde" unicode="&#xf5;" horiz-adv-x="1224" 
d="M779 736c-26 0 -55 7 -84 23l-211 107c-17 9 -31 12 -43 12c-11 0 -26 -3 -26 -38v-89h-69v90c0 36 9 63 26 81c16 16 39 25 65 25s55 -8 83 -23l211 -107c18 -9 32 -13 43 -13s26 4 26 38v89h70v-90c0 -35 -9 -62 -27 -80c-16 -17 -38 -25 -64 -25zM898 0h-514
c-157 0 -284 127 -284 284v125c0 156 127 284 284 284h514c157 0 285 -128 285 -284v-125c0 -157 -128 -284 -285 -284zM176 409v-125c0 -114 94 -208 208 -208h514c115 0 209 94 209 208v125c0 114 -94 208 -209 208h-514c-114 0 -208 -94 -208 -208z" />
    <glyph glyph-name="scaron" unicode="&#x161;" horiz-adv-x="1070" 
d="M512 831l284 135l33 -69l-317 -150l-317 150l33 69zM761 0c107 0 192 86 192 193c0 106 -86 192 -192 192h-507c-63 0 -111 52 -116 118c3 63 50 116 116 116h661v76h-661c-107 -1 -192 -86 -192 -194c0 -107 87 -192 192 -192h507c65 0 116 -52 116 -117
c0 -64 -52 -116 -116 -116h-661v-76h661z" />
    <glyph glyph-name="uacute" unicode="&#xfa;" 
d="M952 0h-568c-156 0 -284 128 -284 285v408h76v-408c0 -113 93 -209 206 -209h494v617h76v-693zM728 940l54 -54l-190 -189l-54 54z" />
    <glyph glyph-name="ucircumflex" unicode="&#xfb;" 
d="M952 0h-568c-156 0 -284 128 -284 285v408h76v-408c0 -113 93 -209 206 -209h494v617h76v-693zM877 727l-284 135l-284 -135l-33 69l317 150l317 -150z" />
    <glyph glyph-name="udieresis" unicode="&#xfc;" 
d="M952 0h-568c-156 0 -284 128 -284 285v408h76v-408c0 -113 93 -209 206 -209h494v617h76v-693zM440 610h-86v90h86v-90zM730 610h-86v90h86v-90z" />
    <glyph glyph-name="ugrave" unicode="&#xf9;" 
d="M431 886l54 54l190 -189l-54 -54zM384 0h568v693h-76v-617h-494c-113 0 -206 96 -206 209v408h-76v-408c0 -157 128 -285 284 -285z" />
    <glyph glyph-name="yacute" unicode="&#xfd;" horiz-adv-x="1182" 
d="M876 693h76v-409c0 -156 -127 -284 -284 -284h-514v76h514c114 0 208 94 208 208v16h-492c-156 0 -284 128 -284 285v108h76v-108c0 -113 93 -209 206 -209h494v317zM728 960l54 -54l-190 -189l-54 54z" />
    <glyph glyph-name="ydieresis" unicode="&#xff;" horiz-adv-x="1182" 
d="M876 693h76v-409c0 -156 -127 -284 -284 -284h-514v76h514c114 0 208 94 208 208v16h-492c-156 0 -284 128 -284 285v108h76v-108c0 -113 93 -209 206 -209h494v317zM433 610h-86v90h86v-90zM723 610h-86v90h86v-90z" />
    <glyph glyph-name="zcaron" unicode="&#x17e;" horiz-adv-x="1090" 
d="M101 0h954v76h-817l831 547v71h-966v-76h819l-821 -541v-77zM562 831l284 135l33 -69l-317 -150l-317 150l33 69z" />
    <glyph glyph-name="uni00A0" unicode="&#xa0;" horiz-adv-x="375" 
 />
    <glyph glyph-name="Euro" unicode="&#x20ac;" horiz-adv-x="1123" 
d="M435 617c-97 0 -179 -68 -202 -158h761v-76h-768v-73h768v-76h-762c23 -90 105 -158 201 -158h586v-76h-584c-78 0 -150 32 -201 83c-40 40 -69 93 -79 151h-87v76h82v73h-82v76h87c24 132 140 234 280 234h584v-76h-584z" />
    <glyph glyph-name="Abreve" unicode="&#x102;" horiz-adv-x="1072" 
d="M412 843v-13c0 -38 30 -68 68 -68h168c37 0 69 30 69 68v13h59v-13c0 -69 -57 -127 -128 -127v0h-168c-35 0 -66 13 -90 37c-23 23 -37 55 -37 90v13h59zM923 610c51 -52 83 -123 83 -201v-409h-76v318h-754v-318h-76v409c0 157 129 284 284 284h338
c78 0 149 -32 201 -83zM176 394h754v17c0 113 -95 206 -208 206h-340c-112 0 -206 -94 -206 -208v-15z" />
    <glyph glyph-name="Amacron" unicode="&#x100;" horiz-adv-x="1072" 
d="M316 747v76h463v-76h-463zM923 610c51 -52 83 -123 83 -201v-409h-76v318h-754v-318h-76v409c0 157 129 284 284 284h338c78 0 149 -32 201 -83zM176 394h754v17c0 113 -95 206 -208 206h-340c-112 0 -206 -94 -206 -208v-15z" />
    <glyph glyph-name="Aogonek" unicode="&#x104;" horiz-adv-x="1071" 
d="M923 610c51 -52 83 -123 83 -201v-409h-76v318h-754v-318h-76v409c0 157 129 284 284 284h338c78 0 149 -32 201 -83zM176 394h754v17c0 113 -95 206 -208 206h-340c-112 0 -206 -94 -206 -208v-15zM947 -184h154v61h-151c-14 1 -21 3 -28 14c-1 3 -2 6 -2 9
c0 13 12 28 23 39l66 61h-87l-17 -15c-27 -21 -45 -53 -45 -89v-1c0 -46 43 -79 87 -79z" />
    <glyph glyph-name="Cacute" unicode="&#x106;" horiz-adv-x="1143" 
d="M721 960l54 -54l-190 -189l-54 54zM184 83c-52 52 -84 123 -84 201v125c0 156 128 284 285 284h584v-76h-584c-115 0 -208 -94 -209 -208v-125c0 -113 93 -208 207 -208h586v-76h-584c-78 0 -150 32 -201 83z" />
    <glyph glyph-name="Ccaron" unicode="&#x10c;" horiz-adv-x="1143" 
d="M586 831l284 135l33 -69l-317 -150l-317 150l33 69zM184 83c51 -51 123 -83 201 -83h584v76h-586c-114 0 -207 95 -207 208v125c1 114 94 208 209 208h584v76h-584c-157 0 -285 -128 -285 -284v-125c0 -78 32 -149 84 -201z" />
    <glyph glyph-name="Ccircumflex" unicode="&#x108;" horiz-adv-x="1143" 
d="M870 747l-284 135l-284 -135l-33 69l317 150l317 -150zM184 83c-52 52 -84 123 -84 201v125c0 156 128 284 285 284h584v-76h-584c-115 0 -208 -94 -209 -208v-125c0 -113 93 -208 207 -208h586v-76h-584c-78 0 -150 32 -201 83z" />
    <glyph glyph-name="Dcaron" unicode="&#x10e;" horiz-adv-x="1127" 
d="M501 831l284 135l33 -69l-317 -150l-317 150l33 69zM100 0v693h619c157 0 284 -129 284 -284v-125c0 -157 -129 -284 -284 -284h-619zM927 284v127c0 113 -95 206 -208 206h-543v-541h545c112 0 206 94 206 208z" />
    <glyph glyph-name="Dcroat" unicode="&#x110;" horiz-adv-x="1088" 
d="M100 0v693h619c157 0 284 -129 284 -284v-125c0 -157 -129 -284 -284 -284h-619zM927 284v127c0 113 -95 206 -208 206h-543v-541h545c112 0 206 94 206 208z" />
    <glyph glyph-name="Ecaron" unicode="&#x11a;" horiz-adv-x="1057" 
d="M570 831l284 135l33 -69l-317 -150l-317 150l33 69zM237 556c-38 -38 -61 -90 -61 -147v-25h793v-76h-793v-26c0 -113 95 -206 208 -206h585v-76h-585c-157 0 -284 129 -284 284v125c0 157 129 284 284 284h585v-76h-585c-57 0 -109 -23 -147 -61z" />
    <glyph glyph-name="Edotaccent" unicode="&#x116;" horiz-adv-x="1057" 
d="M532 750v109h132v-109h-132zM237 556c-38 -38 -61 -90 -61 -147v-25h793v-76h-793v-26c0 -113 95 -206 208 -206h585v-76h-585c-157 0 -284 129 -284 284v125c0 157 129 284 284 284h585v-76h-585c-57 0 -109 -23 -147 -61z" />
    <glyph glyph-name="Emacron" unicode="&#x112;" horiz-adv-x="1057" 
d="M359 747v76h463v-76h-463zM237 556c-38 -38 -61 -90 -61 -147v-25h793v-76h-793v-26c0 -113 95 -206 208 -206h585v-76h-585c-157 0 -284 129 -284 284v125c0 157 129 284 284 284h585v-76h-585c-57 0 -109 -23 -147 -61z" />
    <glyph glyph-name="Eogonek" unicode="&#x118;" horiz-adv-x="1075" 
d="M849 -134h192v-77h-195c-56 0 -112 41 -112 102c0 43 22 82 53 109h-411c-157 0 -284 129 -284 284v125c0 157 129 284 284 284h585v-76h-585c-57 0 -109 -23 -147 -61s-61 -90 -61 -147v-25h793v-76h-793v-26c0 -113 95 -206 208 -206h585v-76h-62l-58 -55
c-15 -14 -30 -32 -30 -49c0 -4 1 -8 3 -12c8 -14 18 -16 35 -18z" />
    <glyph glyph-name="Gbreve" unicode="&#x11e;" horiz-adv-x="1155" 
d="M1025 0h-547c-312 0 -368 148 -368 350c0 205 59 350 368 350h527v-62h-517c-257 0 -313 -87 -313 -288c0 -196 55 -288 313 -288h472v243h-399v62h464v-367zM448 843v-13c0 -38 30 -68 68 -68h168c37 0 69 30 69 68v13h59v-13c0 -69 -57 -127 -128 -127v0h-168
c-35 0 -66 13 -90 37c-23 23 -37 55 -37 90v13h59z" />
    <glyph glyph-name="Gcircumflex" unicode="&#x11c;" horiz-adv-x="1155" 
d="M1025 0h-547c-312 0 -368 148 -368 350c0 205 59 350 368 350h527v-62h-517c-257 0 -313 -87 -313 -288c0 -196 55 -288 313 -288h472v243h-399v62h464v-367zM868 747l-284 135l-284 -135l-33 69l317 150l317 -150z" />
    <glyph glyph-name="Gcommaaccent" unicode="&#x122;" horiz-adv-x="1071" 
d="M722 0h-338c-155 0 -284 127 -284 284v125c0 155 127 284 284 284h420v-76h-420c-113 0 -208 -93 -208 -206v-127c0 -113 93 -208 206 -208h340c113 0 208 93 208 206v29h-316v76h392v-103c0 -155 -127 -284 -284 -284zM514 -244l-69 32l87 186l69 -32z" />
    <glyph glyph-name="Hcircumflex" unicode="&#x124;" horiz-adv-x="1125" 
d="M809 747l-284 135l-284 -135l-33 69l317 150l317 -150zM873 693h77v-693h-77v335h-697v-335h-76v693h76v-282h697v282z" />
    <glyph glyph-name="Idotaccent" unicode="&#x130;" horiz-adv-x="271" 
d="M76 780v109h132v-109h-132zM100 0h76v693h-76v-693z" />
    <glyph glyph-name="Imacron" unicode="&#x12a;" horiz-adv-x="451" 
d="M-88 747v76h463v-76h-463zM176 0h-76v693h76v-693z" />
    <glyph glyph-name="Iogonek" unicode="&#x12e;" horiz-adv-x="241" 
d="M176 0h-76v693h76v-693zM277 -187h-155c-44 0 -89 32 -89 79v2c0 36 20 68 47 90l17 16h87l-65 -63c-12 -11 -24 -25 -24 -39c0 -3 0 -6 2 -10c6 -11 14 -12 28 -14h152v-61z" />
    <glyph glyph-name="Jcircumflex" unicode="&#x134;" horiz-adv-x="1017" 
d="M184 83c-52 52 -84 123 -84 201v59h76v-59c0 -113 93 -208 207 -208h285c113 0 208 93 208 206v411h76v-409c0 -78 -32 -149 -84 -201c-51 -51 -122 -83 -200 -83h-283c-79 0 -150 32 -201 83zM1197 745l-284 135l-284 -135l-33 69l317 150l317 -150z" />
    <glyph glyph-name="Kcommaaccent" unicode="&#x136;" horiz-adv-x="1040" 
d="M970 599c0 -105 -58 -197 -143 -246c85 -50 143 -142 143 -247v-106h-76v106c-1 115 -94 208 -209 208h-509v-314h-76v701h76v-310h509c115 0 208 94 209 208v102h76v-102zM431 -151l69 -32l87 186l-69 32z" />
    <glyph glyph-name="Lcaron" unicode="&#x13d;" horiz-adv-x="1010" 
d="M545 497h-65l55 203h65zM176 693h-76v-408c0 -79 32 -150 83 -201c52 -52 123 -84 201 -84h584v76h-584c-57 0 -109 24 -147 62c-38 37 -61 89 -61 147v408z" />
    <glyph glyph-name="Nacute" unicode="&#x143;" 
d="M728 960l54 -54l-190 -189l-54 54zM811 6c-18 8 -29 15 -47 37l-477 562c-12 14 -29 20 -47 20c-31 0 -63 -19 -64 -54v-571h-76v578l1 3c5 76 74 121 141 121c39 0 78 -15 104 -49l477 -562c12 -14 30 -21 47 -21c30 0 60 20 63 55v570h77v-577
c-9 -75 -73 -125 -141 -125c-19 0 -39 4 -58 13z" />
    <glyph glyph-name="Ncaron" unicode="&#x147;" 
d="M593 831l284 135l33 -69l-317 -150l-317 150l33 69zM811 6c19 -9 39 -13 58 -13c68 0 132 50 141 125v577h-77v-570c-3 -35 -33 -55 -63 -55c-17 0 -35 7 -47 21l-477 562c-26 34 -65 49 -104 49c-67 0 -136 -45 -141 -121l-1 -3v-578h76v571c1 35 33 54 64 54
c18 0 35 -6 47 -20l477 -562c18 -22 29 -29 47 -37z" />
    <glyph glyph-name="Ncommaaccent" unicode="&#x145;" 
d="M811 6c-18 8 -29 15 -47 37l-477 562c-12 14 -29 20 -47 20c-31 0 -63 -19 -64 -54v-571h-76v578l1 3c5 76 74 121 141 121c39 0 78 -15 104 -49l477 -562c12 -14 30 -21 47 -21c30 0 60 20 63 55v570h77v-577c-9 -75 -73 -125 -141 -125c-19 0 -39 4 -58 13zM527 -183
l-69 32l87 186l69 -32z" />
    <glyph glyph-name="Ohungarumlaut" unicode="&#x150;" horiz-adv-x="1224" 
d="M606 960l54 -54l-190 -189l-54 54zM826 960l54 -54l-190 -189l-54 54zM898 0h-514c-157 0 -284 127 -284 284v125c0 156 127 284 284 284h514c157 0 285 -128 285 -284v-125c0 -157 -128 -284 -285 -284zM176 409v-125c0 -114 94 -208 208 -208h514c115 0 209 94 209 208
v125c0 114 -94 208 -209 208h-514c-114 0 -208 -94 -208 -208z" />
    <glyph glyph-name="Omacron" unicode="&#x14c;" horiz-adv-x="1224" 
d="M422 747v76h463v-76h-463zM898 0h-514c-157 0 -284 127 -284 284v125c0 156 127 284 284 284h514c157 0 285 -128 285 -284v-125c0 -157 -128 -284 -285 -284zM176 409v-125c0 -114 94 -208 208 -208h514c115 0 209 94 209 208v125c0 114 -94 208 -209 208h-514
c-114 0 -208 -94 -208 -208z" />
    <glyph glyph-name="Racute" unicode="&#x154;" horiz-adv-x="1169" 
d="M616 960l54 -54l-190 -189l-54 54zM978 331c-32 -31 -75 -52 -122 -59l203 -272h-95l-201 269h-587v-269h-76v693h722c45 0 88 -13 123 -35c60 -38 100 -104 100 -177c0 -58 -25 -111 -67 -150zM176 617v-272h650c75 0 143 60 143 136c0 77 -70 136 -147 136h-646z" />
    <glyph glyph-name="Rcaron" unicode="&#x158;" horiz-adv-x="1169" 
d="M215 0h-65v700h626c213 0 289 -68 289 -203c0 -164 -85 -211 -279 -211h-4l292 -286h-88l-292 286h-479v-286zM768 638h-553v-292h556c166 0 225 20 225 150c0 105 -63 142 -228 142zM591 831l284 135l33 -69l-317 -150l-317 150l33 69z" />
    <glyph glyph-name="Rcommaaccent" unicode="&#x156;" horiz-adv-x="1124" 
d="M978 331c-32 -31 -75 -52 -122 -59l203 -272h-95l-201 269h-587v-269h-76v693h722c45 0 88 -13 123 -35c60 -38 100 -104 100 -177c0 -58 -25 -111 -67 -150zM176 617v-272h650c75 0 143 60 143 136c0 77 -70 136 -147 136h-646z" />
    <glyph glyph-name="Sacute" unicode="&#x15a;" horiz-adv-x="1094" 
d="M594 960l54 -54l-190 -189l-54 54zM761 0h-661v76h661c64 0 116 52 116 116c0 65 -51 117 -116 117h-507c-105 0 -192 85 -192 192c0 108 85 193 192 194h661v-76h-661c-66 0 -113 -53 -116 -116c5 -66 53 -118 116 -118h507c106 0 192 -86 192 -192
c0 -107 -85 -193 -192 -193z" />
    <glyph glyph-name="Scedilla" unicode="&#x15e;" horiz-adv-x="1094" 
d="M439 -238h-98v71h102c34 0 60 32 60 65v104h72v-104c0 -70 -60 -136 -136 -136zM761 0c107 0 192 86 192 193c0 106 -86 192 -192 192h-507c-63 0 -111 52 -116 118c3 63 50 116 116 116h661v76h-661c-107 -1 -192 -86 -192 -194c0 -107 87 -192 192 -192h507
c65 0 116 -52 116 -117c0 -64 -52 -116 -116 -116h-661v-76h661z" />
    <glyph glyph-name="Scedilla" unicode="&#xf6c1;" horiz-adv-x="1094" 
d="M439 -238h-98v71h102c34 0 60 32 60 65v104h72v-104c0 -70 -60 -136 -136 -136zM761 0c107 0 192 86 192 193c0 106 -86 192 -192 192h-507c-63 0 -111 52 -116 118c3 63 50 116 116 116h661v76h-661c-107 -1 -192 -86 -192 -194c0 -107 87 -192 192 -192h507
c65 0 116 -52 116 -117c0 -64 -52 -116 -116 -116h-661v-76h661z" />
    <glyph glyph-name="Scircumflex" unicode="&#x15c;" horiz-adv-x="1094" 
d="M793 747l-284 135l-284 -135l-33 69l317 150l317 -150zM761 0h-661v76h661c64 0 116 52 116 116c0 65 -51 117 -116 117h-507c-105 0 -192 85 -192 192c0 108 85 193 192 194h661v-76h-661c-66 0 -113 -53 -116 -116c5 -66 53 -118 116 -118h507c106 0 192 -86 192 -192
c0 -107 -85 -193 -192 -193z" />
    <glyph glyph-name="Scommaaccent" unicode="&#x218;" horiz-adv-x="1072" 
d="M761 0h-661v76h661c64 0 116 52 116 116c0 65 -51 117 -116 117h-507c-105 0 -192 85 -192 192c0 108 85 193 192 194h661v-76h-661c-66 0 -113 -53 -116 -116c5 -66 53 -118 116 -118h507c106 0 192 -86 192 -192c0 -107 -85 -193 -192 -193zM490 -256l-69 32l87 186
l69 -32z" />
    <glyph glyph-name="Tcommaaccent" unicode="&#x21a;" horiz-adv-x="1043" 
d="M966 693v-76h-395v-617h-76v617h-395v76h866zM441 -198l69 -32l87 186l-69 32z" />
    <glyph glyph-name="Ubreve" unicode="&#x16c;" horiz-adv-x="1017" 
d="M372 843v-13c0 -38 30 -68 68 -68h168c37 0 69 30 69 68v13h59v-13c0 -69 -57 -127 -128 -127v0h-168c-35 0 -66 13 -90 37c-23 23 -37 55 -37 90v13h59zM184 83c-52 52 -84 123 -84 201v409h76v-409c0 -113 93 -208 207 -208h285c113 0 208 93 208 206v411h76v-409
c0 -78 -32 -149 -84 -201c-51 -51 -122 -83 -200 -83h-283c-79 0 -150 32 -201 83z" />
    <glyph glyph-name="Uhungarumlaut" unicode="&#x170;" horiz-adv-x="1190" 
d="M496 960l54 -54l-190 -189l-54 54zM716 960l54 -54l-190 -189l-54 54zM184 83c-52 52 -84 123 -84 201v409h76v-409c0 -113 93 -208 207 -208h285c113 0 208 93 208 206v411h76v-409c0 -78 -32 -149 -84 -201c-51 -51 -122 -83 -200 -83h-283c-79 0 -150 32 -201 83z" />
    <glyph glyph-name="Umacron" unicode="&#x16a;" horiz-adv-x="1017" 
d="M296 747v76h463v-76h-463zM184 83c-52 52 -84 123 -84 201v409h76v-409c0 -113 93 -208 207 -208h285c113 0 208 93 208 206v411h76v-409c0 -78 -32 -149 -84 -201c-51 -51 -122 -83 -200 -83h-283c-79 0 -150 32 -201 83z" />
    <glyph glyph-name="Uogonek" unicode="&#x172;" horiz-adv-x="1058" 
d="M698 -235h-195c-56 0 -112 41 -112 100v2c0 45 24 86 58 113l22 20h110l-83 -79c-15 -14 -30 -32 -30 -49c0 -4 1 -8 3 -12c8 -14 18 -16 35 -18h192v-77zM184 83c-52 52 -84 123 -84 201v409h76v-409c0 -113 93 -208 207 -208h285c113 0 208 93 208 206v411h76v-409
c0 -78 -32 -149 -84 -201c-51 -51 -122 -83 -200 -83h-283c-79 0 -150 32 -201 83z" />
    <glyph glyph-name="Uring" unicode="&#x16e;" horiz-adv-x="1190" 
d="M603 709h-148c-35 0 -66 13 -90 37c-23 23 -37 55 -37 90v13c0 71 57 128 127 129h148c70 0 128 -58 128 -129v-13c0 -69 -57 -127 -128 -127zM407 898c-13 -13 -20 -30 -20 -49v-13c0 -38 30 -68 68 -68h148c37 0 69 30 69 68v13c0 38 -32 69 -69 69h-148
c-19 0 -36 -8 -48 -20zM184 83c-52 52 -84 123 -84 201v409h76v-409c0 -113 93 -208 207 -208h285c113 0 208 93 208 206v411h76v-409c0 -78 -32 -149 -84 -201c-51 -51 -122 -83 -200 -83h-283c-79 0 -150 32 -201 83z" />
    <glyph glyph-name="Zacute" unicode="&#x179;" horiz-adv-x="1090" 
d="M652 960l54 -54l-190 -189l-54 54zM973 0h-755c-85 0 -129 76 -129 143c0 96 82 118 82 118l686 239c4 4 47 13 47 56c0 10 -3 61 -55 61h-753v76h760c111 0 124 -123 124 -137c0 -93 -65 -115 -65 -115l-717 -251c-27 -12 -34 -32 -34 -51c0 -30 21 -61 55 -63h754v-76z
" />
    <glyph glyph-name="Zdotaccent" unicode="&#x17b;" horiz-adv-x="1090" 
d="M457 768v109h132v-109h-132zM218 0h755v76h-754c-34 2 -55 33 -55 63c0 19 7 39 34 51l717 251s65 22 65 115c0 14 -13 137 -124 137h-760v-76h753c52 0 55 -51 55 -61c0 -43 -43 -52 -47 -56l-686 -239s-82 -22 -82 -118c0 -67 44 -143 129 -143z" />
    <glyph glyph-name="abreve" unicode="&#x103;" horiz-adv-x="1160" 
d="M990 -1l-668 1c-90 0 -169 50 -204 128c-12 26 -18 54 -18 83c0 119 102 212 218 212h596v47c-1 81 -68 146 -148 147h-503v76h503c124 0 223 -100 224 -223v-471zM240 323c-40 -25 -64 -65 -64 -112c1 -76 66 -135 142 -135h596v271h-592c-30 0 -59 -9 -82 -24zM446 843
v-13c0 -38 30 -68 68 -68h168c37 0 69 30 69 68v13h59v-13c0 -69 -57 -127 -128 -127v0h-168c-35 0 -66 13 -90 37c-23 23 -37 55 -37 90v13h59z" />
    <glyph glyph-name="amacron" unicode="&#x101;" horiz-adv-x="1160" 
d="M990 -1l-668 1c-90 0 -169 50 -204 128c-12 26 -18 54 -18 83c0 119 102 212 218 212h596v47c-1 81 -68 146 -148 147h-503v76h503c124 0 223 -100 224 -223v-471zM240 323c-40 -25 -64 -65 -64 -112c1 -76 66 -135 142 -135h596v271h-592c-30 0 -59 -9 -82 -24zM341 747
v76h463v-76h-463z" />
    <glyph glyph-name="aogonek" unicode="&#x105;" horiz-adv-x="1083" 
d="M990 -1l-668 1c-90 0 -169 50 -204 128c-12 26 -18 54 -18 83c0 119 102 212 218 212h596v47c-1 81 -68 146 -148 147h-503v76h503c124 0 223 -100 224 -223v-471zM240 323c-40 -25 -64 -65 -64 -112c1 -76 66 -135 142 -135h596v271h-592c-30 0 -59 -9 -82 -24z
M1085 -199h-171c-49 0 -98 36 -98 87v2c0 40 21 75 50 99l20 18h96l-73 -70c-13 -12 -26 -28 -26 -43c0 -3 1 -7 3 -10c7 -12 15 -14 30 -16h169v-67z" />
    <glyph glyph-name="cacute" unicode="&#x107;" horiz-adv-x="1143" 
d="M721 960l54 -54l-190 -189l-54 54zM184 83c-52 52 -84 123 -84 201v125c0 156 128 284 285 284h584v-76h-584c-115 0 -208 -94 -209 -208v-125c0 -113 93 -208 207 -208h586v-76h-584c-78 0 -150 32 -201 83z" />
    <glyph glyph-name="ccaron" unicode="&#x10d;" horiz-adv-x="1143" 
d="M586 831l284 135l33 -69l-317 -150l-317 150l33 69zM184 83c51 -51 123 -83 201 -83h584v76h-586c-114 0 -207 95 -207 208v125c1 114 94 208 209 208h584v76h-584c-157 0 -285 -128 -285 -284v-125c0 -78 32 -149 84 -201z" />
    <glyph glyph-name="ccircumflex" unicode="&#x109;" horiz-adv-x="1143" 
d="M870 747l-284 135l-284 -135l-33 69l317 150l317 -150zM184 83c-52 52 -84 123 -84 201v125c0 156 128 284 285 284h584v-76h-584c-115 0 -208 -94 -209 -208v-125c0 -113 93 -208 207 -208h586v-76h-584c-78 0 -150 32 -201 83z" />
    <glyph glyph-name="commaaccent" unicode="&#xf004;" horiz-adv-x="270" 
d="M117 -183l-69 32l87 186l69 -32z" />
    <glyph glyph-name="commaaccent" unicode="&#xf6c3;" horiz-adv-x="270" 
d="M117 -183l-69 32l87 186l69 -32z" />
    <glyph glyph-name="dcaron" unicode="&#x10f;" horiz-adv-x="1110" 
d="M514 831l284 135l33 -69l-317 -150l-317 150l33 69zM100 0v693h619c157 0 284 -129 284 -284v-125c0 -157 -129 -284 -284 -284h-619zM927 284v127c0 113 -95 206 -208 206h-543v-541h545c112 0 206 94 206 208z" />
    <glyph glyph-name="dcroat" unicode="&#x111;" horiz-adv-x="1087" 
d="M100 0v693h619c157 0 284 -129 284 -284v-125c0 -157 -129 -284 -284 -284h-619zM927 284v127c0 113 -95 206 -208 206h-543v-541h545c112 0 206 94 206 208z" />
    <glyph glyph-name="dotlessj" unicode="&#xf6be;" horiz-adv-x="1030" 
d="M286 638v62h614v-417c0 -189 -63 -283 -318 -283h-174c-255 0 -318 94 -318 283v71h63v-66c0 -170 48 -230 263 -230h158c215 0 261 60 261 230v350h-549z" />
    <glyph glyph-name="dotlessj" unicode="&#xfb0f;" horiz-adv-x="1030" 
d="M286 638v62h614v-417c0 -189 -63 -283 -318 -283h-174c-255 0 -318 94 -318 283v71h63v-66c0 -170 48 -230 263 -230h158c215 0 261 60 261 230v350h-549z" />
    <glyph glyph-name="ecaron" unicode="&#x11b;" horiz-adv-x="1152" 
d="M80 173v310c1 118 104 209 223 209h468c117 0 219 -95 219 -212c0 -119 -104 -212 -223 -212h-611v-95c10 -68 77 -97 147 -97h634v-76h-639c-102 0 -214 65 -218 173zM303 616c-59 0 -147 -56 -147 -133v-139h615c76 0 143 60 143 136c0 78 -70 136 -147 136h-464z
M512 831l284 135l33 -69l-317 -150l-317 150l33 69z" />
    <glyph glyph-name="edotaccent" unicode="&#x117;" horiz-adv-x="1127" 
d="M80 173v310c1 118 104 209 223 209h468c117 0 219 -95 219 -212c0 -119 -104 -212 -223 -212h-611v-95c10 -68 77 -97 147 -97h634v-76h-639c-102 0 -214 65 -218 173zM303 616c-59 0 -147 -56 -147 -133v-139h615c76 0 143 60 143 136c0 78 -70 136 -147 136h-464z
M465 750v109h132v-109h-132z" />
    <glyph glyph-name="emacron" unicode="&#x113;" horiz-adv-x="1152" 
d="M80 173v310c1 118 104 209 223 209h468c117 0 219 -95 219 -212c0 -119 -104 -212 -223 -212h-611v-95c10 -68 77 -97 147 -97h634v-76h-639c-102 0 -214 65 -218 173zM303 616c-59 0 -147 -56 -147 -133v-139h615c76 0 143 60 143 136c0 78 -70 136 -147 136h-464z
M302 747v76h463v-76h-463z" />
    <glyph glyph-name="eogonek" unicode="&#x119;" horiz-adv-x="1122" 
d="M100 173v310c1 118 104 209 223 209h468c117 0 219 -95 219 -212c0 -119 -104 -212 -223 -212h-611v-95c10 -68 77 -97 147 -97h634v-76h-639c-102 0 -214 65 -218 173zM323 616c-59 0 -147 -56 -147 -133v-139h615c76 0 143 60 143 136c0 78 -70 136 -147 136h-464z
M523 -235h195v77h-192c-17 2 -27 4 -35 18c-2 4 -3 8 -3 12c0 17 15 35 30 49l83 79h-110l-22 -20c-34 -27 -58 -68 -58 -113v-2c0 -59 56 -100 112 -100z" />
    <glyph glyph-name="gbreve" unicode="&#x11f;" horiz-adv-x="1155" 
d="M448 843v-13c0 -38 30 -68 68 -68h168c37 0 69 30 69 68v13h59v-13c0 -69 -57 -127 -128 -127v0h-168c-35 0 -66 13 -90 37c-23 23 -37 55 -37 90v13h59z" />
    <glyph glyph-name="gcircumflex" unicode="&#x11d;" horiz-adv-x="1155" 
d="M868 747l-284 135l-284 -135l-33 69l317 150l317 -150z" />
    <glyph glyph-name="gcommaaccent" unicode="&#x123;" horiz-adv-x="1062" 
d="M184 83c-52 52 -84 123 -84 201v125c0 156 128 284 285 284h584v-76h-584c-115 0 -208 -93 -209 -207v-126c0 -113 93 -208 207 -208h510v221h-447v76h523v-373h-584c-78 0 -150 32 -201 83zM565 -250l-69 32l87 186l69 -32z" />
    <glyph glyph-name="hcircumflex" unicode="&#x125;" 
d="M868 609c52 -51 84 -123 84 -201v-408h-76v408c-1 115 -94 209 -209 209h-283c-114 -1 -208 -94 -208 -209v-408h-76v859h76v-258c2 3 5 6 7 8c52 52 123 84 201 84h283c78 0 150 -32 201 -84zM847 747l-284 135l-284 -135l-33 69l317 150l317 -150z" />
    <glyph glyph-name="imacron" unicode="&#x12b;" horiz-adv-x="465" 
d="M-91 737v76h463v-76h-463zM176 0h-76v693h76v-693z" />
    <glyph glyph-name="iogonek" unicode="&#x12f;" horiz-adv-x="241" 
d="M176 0h-76v693h76v-693zM265 -176h-144c-42 0 -83 30 -83 74v1c0 34 18 64 43 84l16 15h81l-61 -59c-11 -10 -22 -23 -22 -36c0 -3 1 -6 2 -9c6 -10 13 -12 26 -13h142v-57z" />
    <glyph glyph-name="jcircumflex" unicode="&#x135;" horiz-adv-x="1060" 
d="M224 617v76h728v-409c0 -78 -32 -149 -84 -201c-51 -51 -122 -83 -200 -83h-283c-79 0 -150 32 -201 83c-52 52 -84 123 -84 201v59h76v-59c0 -113 93 -208 207 -208h285c113 0 208 93 208 206v335h-652zM863 745l-284 135l-284 -135l-33 69l317 150l317 -150z" />
    <glyph glyph-name="kcommaaccent" unicode="&#x137;" horiz-adv-x="1087" 
d="M739 384c138 -21 241 -140 241 -281v-103h-76v105c0 113 -95 206 -208 206h-520v-311h-76v701h76v-313h465l266 314h105zM412 -151l69 -32l87 186l-69 32z" />
    <glyph glyph-name="lcaron" unicode="&#x13e;" horiz-adv-x="993" 
d="M456 58h462v-58h-470c-255 0 -318 94 -318 283v417h65v-412c0 -170 46 -230 261 -230zM545 497h-65l55 203h65z" />
    <glyph glyph-name="nacute" unicode="&#x144;" horiz-adv-x="1027" 
d="M100 693h568c156 0 284 -128 284 -285v-408h-76v408c0 113 -93 209 -206 209h-494v-617h-76v693zM583 960l54 -54l-190 -189l-54 54z" />
    <glyph glyph-name="ncaron" unicode="&#x148;" 
d="M668 693h-568v-693h76v617h494c113 0 206 -96 206 -209v-408h76v408c0 157 -128 285 -284 285zM593 831l284 135l33 -69l-317 -150l-317 150l33 69z" />
    <glyph glyph-name="ncommaaccent" unicode="&#x146;" horiz-adv-x="1041" 
d="M100 693h568c156 0 284 -128 284 -285v-408h-76v408c0 113 -93 209 -206 209h-494v-617h-76v693zM494 -183l-69 32l87 186l69 -32z" />
    <glyph glyph-name="ohungarumlaut" unicode="&#x151;" horiz-adv-x="1224" 
d="M603 960l54 -54l-190 -189l-54 54zM823 960l54 -54l-190 -189l-54 54zM898 0h-514c-157 0 -284 127 -284 284v125c0 156 127 284 284 284h514c157 0 285 -128 285 -284v-125c0 -157 -128 -284 -285 -284zM176 409v-125c0 -114 94 -208 208 -208h514c115 0 209 94 209 208
v125c0 114 -94 208 -209 208h-514c-114 0 -208 -94 -208 -208z" />
    <glyph glyph-name="omacron" unicode="&#x14d;" horiz-adv-x="1224" 
d="M411 747v76h463v-76h-463zM898 0h-514c-157 0 -284 127 -284 284v125c0 156 127 284 284 284h514c157 0 285 -128 285 -284v-125c0 -157 -128 -284 -285 -284zM176 409v-125c0 -114 94 -208 208 -208h514c115 0 209 94 209 208v125c0 114 -94 208 -209 208h-514
c-114 0 -208 -94 -208 -208z" />
    <glyph glyph-name="racute" unicode="&#x155;" horiz-adv-x="953" 
d="M176 0h-76v409c0 156 127 284 284 284h514v-76h-514c-114 0 -208 -94 -208 -208v-409zM621 960l54 -54l-190 -189l-54 54z" />
    <glyph glyph-name="rcaron" unicode="&#x159;" horiz-adv-x="953" 
d="M100 0h76v409c0 114 94 208 208 208h514v76h-514c-157 0 -284 -128 -284 -284v-409zM527 831l284 135l33 -69l-317 -150l-317 150l33 69z" />
    <glyph glyph-name="rcommaaccent" unicode="&#x157;" horiz-adv-x="890" 
d="M176 0h-76v409c0 156 127 284 284 284h514v-76h-514c-114 0 -208 -94 -208 -208v-409zM117 -239l-69 32l87 186l69 -32z" />
    <glyph glyph-name="sacute" unicode="&#x15b;" horiz-adv-x="1018" 
d="M594 960l54 -54l-190 -189l-54 54zM761 0h-661v76h661c64 0 116 52 116 116c0 65 -51 117 -116 117h-507c-105 0 -192 85 -192 192c0 108 85 193 192 194h661v-76h-661c-66 0 -113 -53 -116 -116c5 -66 53 -118 116 -118h507c106 0 192 -86 192 -192
c0 -107 -85 -193 -192 -193z" />
    <glyph glyph-name="scedilla" unicode="&#x15f;" horiz-adv-x="1094" 
d="M439 -241h-98v71h102c34 0 60 32 60 65v104h72v-104c0 -70 -60 -136 -136 -136z" />
    <glyph glyph-name="scedilla" unicode="&#xf6c2;" horiz-adv-x="1094" 
d="M439 -241h-98v71h102c34 0 60 32 60 65v104h72v-104c0 -70 -60 -136 -136 -136z" />
    <glyph glyph-name="scircumflex" unicode="&#x15d;" horiz-adv-x="1074" 
d="M809 747l-284 135l-284 -135l-33 69l317 150l317 -150zM761 0h-661v76h661c64 0 116 52 116 116c0 65 -51 117 -116 117h-507c-105 0 -192 85 -192 192c0 108 85 193 192 194h661v-76h-661c-66 0 -113 -53 -116 -116c5 -66 53 -118 116 -118h507c106 0 192 -86 192 -192
c0 -107 -85 -193 -192 -193z" />
    <glyph glyph-name="scommaaccent" unicode="&#x219;" horiz-adv-x="1075" 
d="M761 0h-661v76h661c64 0 116 52 116 116c0 65 -51 117 -116 117h-507c-105 0 -192 85 -192 192c0 108 85 193 192 194h661v-76h-661c-66 0 -113 -53 -116 -116c5 -66 53 -118 116 -118h507c106 0 192 -86 192 -192c0 -107 -85 -193 -192 -193zM484 -256l-69 32l87 186
l69 -32z" />
    <glyph glyph-name="tcommaaccent" unicode="&#x21b;" horiz-adv-x="1043" 
d="M838 596v-76h-662v-235c0 -58 23 -110 61 -147c38 -38 90 -62 147 -62h584v-76h-584c-78 0 -149 32 -201 84c-51 51 -83 122 -83 201v408h76v-97h662zM528 -250l-69 32l87 186l69 -32z" />
    <glyph glyph-name="ubreve" unicode="&#x16d;" 
d="M952 0h-568c-156 0 -284 128 -284 285v408h76v-408c0 -113 93 -209 206 -209h494v617h76v-693zM382 833v-13c0 -38 30 -68 68 -68h168c37 0 69 30 69 68v13h59v-13c0 -69 -57 -127 -128 -127v0h-168c-35 0 -66 13 -90 37c-23 23 -37 55 -37 90v13h59z" />
    <glyph glyph-name="uhungarumlaut" unicode="&#x171;" horiz-adv-x="1107" 
d="M952 0h-568c-156 0 -284 128 -284 285v408h76v-408c0 -113 93 -209 206 -209h494v617h76v-693zM525 940l54 -54l-190 -189l-54 54zM745 940l54 -54l-190 -189l-54 54z" />
    <glyph glyph-name="umacron" unicode="&#x16b;" horiz-adv-x="1036" 
d="M952 0h-568c-156 0 -284 128 -284 285v408h76v-408c0 -113 93 -209 206 -209h494v617h76v-693zM302 737v76h463v-76h-463z" />
    <glyph glyph-name="uogonek" unicode="&#x173;" 
d="M952 0h-568c-156 0 -284 128 -284 285v408h76v-408c0 -113 93 -209 206 -209h494v617h76v-693zM734 -220h-195c-56 0 -112 41 -112 100v2c0 45 24 86 58 113l22 20h110l-83 -79c-15 -14 -30 -32 -30 -49c0 -4 1 -8 3 -12c8 -14 18 -16 35 -18h192v-77z" />
    <glyph glyph-name="uring" unicode="&#x16f;" 
d="M952 0h-568c-156 0 -284 128 -284 285v408h76v-408c0 -113 93 -209 206 -209h494v617h76v-693zM609 712h-148c-35 0 -66 13 -90 37c-23 23 -37 55 -37 90v13c0 71 57 128 127 129h148c70 0 128 -58 128 -129v-13c0 -69 -57 -127 -128 -127zM413 901
c-13 -13 -20 -30 -20 -49v-13c0 -38 30 -68 68 -68h148c37 0 69 30 69 68v13c0 38 -32 69 -69 69h-148c-19 0 -36 -8 -48 -20z" />
    <glyph glyph-name="zacute" unicode="&#x17a;" horiz-adv-x="1090" 
d="M1055 0h-954v77l821 541h-819v76h966v-71l-831 -547h817v-76zM643 958l54 -54l-190 -189l-54 54z" />
    <glyph glyph-name="zdotaccent" unicode="&#x17c;" horiz-adv-x="1090" 
d="M484 790v109h132v-109h-132zM101 0h954v76h-817l831 547v71h-966v-76h819l-821 -541v-77z" />
    <glyph glyph-name="S" unicode="S" horiz-adv-x="1018" 
d="M761 0h-661v76h661c64 0 116 52 116 116c0 65 -51 117 -116 117h-507c-105 0 -192 85 -192 192c0 108 85 193 192 194h661v-76h-661c-66 0 -113 -53 -116 -116c5 -66 53 -118 116 -118h507c106 0 192 -86 192 -192c0 -107 -85 -193 -192 -193z" />
    <glyph glyph-name="R" unicode="R" horiz-adv-x="1124" 
d="M978 331c-32 -31 -75 -52 -122 -59l203 -272h-95l-201 269h-587v-269h-76v693h722c45 0 88 -13 123 -35c60 -38 100 -104 100 -177c0 -58 -25 -111 -67 -150zM176 617v-272h650c75 0 143 60 143 136c0 77 -70 136 -147 136h-646z" />
    <glyph glyph-name="H" unicode="H" horiz-adv-x="1015" 
d="M873 693h77v-693h-77v335h-697v-335h-76v693h76v-282h697v282z" />
    <glyph glyph-name="I" unicode="I" horiz-adv-x="241" 
d="M176 0h-76v693h76v-693z" />
    <glyph glyph-name="O" unicode="O" horiz-adv-x="1248" 
d="M898 0h-514c-157 0 -284 127 -284 284v125c0 156 127 284 284 284h514c157 0 285 -128 285 -284v-125c0 -157 -128 -284 -285 -284zM176 409v-125c0 -114 94 -208 208 -208h514c115 0 209 94 209 208v125c0 114 -94 208 -209 208h-514c-114 0 -208 -94 -208 -208z" />
    <glyph glyph-name="o" unicode="o" horiz-adv-x="1248" 
d="M898 0h-514c-157 0 -284 127 -284 284v125c0 156 127 284 284 284h514c157 0 285 -128 285 -284v-125c0 -157 -128 -284 -285 -284zM176 409v-125c0 -114 94 -208 208 -208h514c115 0 209 94 209 208v125c0 114 -94 208 -209 208h-514c-114 0 -208 -94 -208 -208z" />
    <glyph glyph-name="T" unicode="T" horiz-adv-x="1031" 
d="M966 693v-76h-395v-617h-76v617h-395v76h866z" />
    <glyph glyph-name="N" unicode="N" horiz-adv-x="1110" 
d="M811 6c-18 8 -29 15 -47 37l-477 562c-12 14 -29 20 -47 20c-31 0 -63 -19 -64 -54v-571h-76v578l1 3c5 76 74 121 141 121c39 0 78 -15 104 -49l477 -562c12 -14 30 -21 47 -21c30 0 60 20 63 55v570h77v-577c-9 -75 -73 -125 -141 -125c-19 0 -39 4 -58 13z" />
    <glyph glyph-name="D" unicode="D" horiz-adv-x="1068" 
d="M100 0v693h619c157 0 284 -129 284 -284v-125c0 -157 -129 -284 -284 -284h-619zM927 284v127c0 113 -95 206 -208 206h-543v-541h545c112 0 206 94 206 208z" />
    <glyph glyph-name="E" unicode="E" horiz-adv-x="1062" 
d="M237 556c-38 -38 -61 -90 -61 -147v-25h793v-76h-793v-26c0 -113 95 -206 208 -206h585v-76h-585c-157 0 -284 129 -284 284v125c0 157 129 284 284 284h585v-76h-585c-57 0 -109 -23 -147 -61z" />
    <glyph glyph-name="G" unicode="G" horiz-adv-x="1071" 
d="M722 0h-338c-155 0 -284 127 -284 284v125c0 155 127 284 284 284h420v-76h-420c-113 0 -208 -93 -208 -206v-127c0 -113 93 -208 206 -208h340c113 0 208 93 208 206v29h-316v76h392v-103c0 -155 -127 -284 -284 -284z" />
    <glyph glyph-name="U" unicode="U" horiz-adv-x="1042" 
d="M184 83c-52 52 -84 123 -84 201v409h76v-409c0 -113 93 -208 207 -208h285c113 0 208 93 208 206v411h76v-409c0 -78 -32 -149 -84 -201c-51 -51 -122 -83 -200 -83h-283c-79 0 -150 32 -201 83z" />
    <glyph glyph-name="C" unicode="C" horiz-adv-x="1034" 
d="M184 83c-52 52 -84 123 -84 201v125c0 156 128 284 285 284h584v-76h-584c-115 0 -208 -94 -209 -208v-125c0 -113 93 -208 207 -208h586v-76h-584c-78 0 -150 32 -201 83z" />
    <glyph glyph-name="P" unicode="P" horiz-adv-x="1111" 
d="M177 269v-269h-77v693h728c115 0 218 -97 218 -212c0 -118 -106 -212 -223 -212h-646zM177 345h648c77 0 143 61 145 136c-2 76 -69 136 -147 136h-646v-272z" />
    <glyph glyph-name="Q" unicode="Q" horiz-adv-x="1248" 
d="M1246 0h-862c-157 0 -284 127 -284 284v127c0 156 127 284 284 284h514c157 0 285 -128 285 -284v-127c0 -82 -35 -156 -91 -208h154v-76zM384 76h522c111 0 201 97 201 208v127c0 114 -94 208 -209 208h-514c-114 0 -208 -94 -208 -208v-127c0 -114 94 -208 208 -208z
" />
    <glyph glyph-name="J" unicode="J" horiz-adv-x="1017" 
d="M184 83c-52 52 -84 123 -84 201v59h76v-59c0 -113 93 -208 207 -208h285c113 0 208 93 208 206v411h76v-409c0 -78 -32 -149 -84 -201c-51 -51 -122 -83 -200 -83h-283c-79 0 -150 32 -201 83z" />
    <glyph glyph-name="L" unicode="L" horiz-adv-x="1033" 
d="M100 693h76v-408c0 -58 23 -110 61 -147c38 -38 90 -62 147 -62h584v-76h-584c-78 0 -149 32 -201 84c-51 51 -83 122 -83 201v408z" />
    <glyph glyph-name="F" unicode="F" horiz-adv-x="1033" 
d="M237 555c-38 -37 -61 -89 -61 -147v-27h747v-76h-747v-305h-76v408c0 79 32 150 83 201c52 52 123 84 201 84h584v-76h-584c-57 0 -109 -24 -147 -62z" />
    <glyph glyph-name="A" unicode="A" horiz-adv-x="1071" 
d="M923 610c51 -52 83 -123 83 -201v-409h-76v318h-754v-318h-76v409c0 157 129 284 284 284h338c78 0 149 -32 201 -83zM176 394h754v17c0 113 -95 206 -208 206h-340c-112 0 -206 -94 -206 -208v-15z" />
    <glyph glyph-name="Z" unicode="Z" horiz-adv-x="1049" 
d="M973 0h-755c-85 0 -129 76 -129 143c0 96 82 118 82 118l686 239c4 4 47 13 47 56c0 10 -3 61 -55 61h-753v76h760c111 0 124 -123 124 -137c0 -93 -65 -115 -65 -115l-717 -251c-27 -12 -34 -32 -34 -51c0 -30 21 -61 55 -63h754v-76z" />
    <glyph glyph-name="M" unicode="M" horiz-adv-x="1122" 
d="M604 -2h-24h-28l-255 586c-15 23 -31 32 -59 32c-29 -1 -61 -22 -62 -53v-563h-76v567s1 12 5 25c17 54 64 96 125 100h24c53 0 102 -46 118 -89l206 -475l207 475c17 46 62 88 116 89h25c66 -1 129 -64 131 -125v-567h-76v563c-8 31 -23 50 -57 55l-8 1
c-33 0 -55 -28 -60 -43z" />
    <glyph glyph-name="Y" unicode="Y" horiz-adv-x="1017" 
d="M567 0h-76v220h-106c-79 0 -150 32 -201 83c-52 52 -84 123 -84 201v189h76v-189c0 -113 93 -208 207 -208h285c113 0 208 93 208 206v191h76v-189c0 -78 -32 -149 -84 -201c-51 -51 -122 -83 -200 -83h-101v-220z" />
    <glyph glyph-name="X.001" horiz-adv-x="833" 
 />
    <glyph glyph-name="X" unicode="X" horiz-adv-x="1017" 
d="M868 304c52 -52 84 -123 84 -201v-103h-76v103c0 113 -93 208 -207 208h-285c-113 0 -208 -93 -208 -206v-105h-76v103c0 78 32 149 84 201c17 17 37 32 58 45c-21 12 -41 27 -58 45c-52 52 -84 123 -84 201v98h76v-98c0 -113 93 -208 207 -208h293c110 0 200 96 200 206
v100h76v-98c0 -78 -32 -149 -84 -201c-18 -18 -37 -33 -59 -45c22 -13 41 -28 59 -45z" />
    <glyph glyph-name="B" unicode="B" horiz-adv-x="1105" 
d="M945 373l-21 -15c51 -36 85 -95 85 -159c0 -111 -99 -199 -210 -199h-699v693h696c81 0 160 -39 195 -111c12 -24 18 -49 18 -74c0 -51 -23 -102 -64 -135zM176 617v-219h624c62 0 133 43 133 109c0 70 -71 110 -137 110h-620zM923 152c7 15 10 31 10 46
c0 66 -61 123 -132 123h-625v-245h625c51 0 102 31 122 76z" />
    <glyph glyph-name="g" unicode="g" horiz-adv-x="1062" 
d="M184 83c-52 52 -84 123 -84 201v125c0 156 128 284 285 284h584v-76h-584c-115 0 -208 -93 -209 -207v-126c0 -113 93 -208 207 -208h510v221h-447v76h523v-373h-584c-78 0 -150 32 -201 83z" />
    <glyph glyph-name="K" unicode="K" horiz-adv-x="1040" 
d="M970 599c0 -105 -58 -197 -143 -246c85 -50 143 -142 143 -247v-106h-76v106c-1 115 -94 208 -209 208h-509v-314h-76v701h76v-310h509c115 0 208 94 209 208v102h76v-102z" />
    <glyph glyph-name="V" unicode="V" horiz-adv-x="1172" 
d="M580 0h-19h-23l-524 693h95l450 -596l455 596h96z" />
    <glyph glyph-name="W" unicode="W" horiz-adv-x="1658" 
d="M1512 693h76v-412c-1 -156 -127 -284 -285 -284h-213c-78 0 -149 32 -200 83c-18 18 -34 38 -46 59c-13 -21 -28 -41 -46 -59c-51 -51 -122 -83 -200 -83h-214c-157 0 -284 129 -284 284v412h76v-414c0 -113 95 -206 208 -206h213c58 0 110 23 148 61s61 90 61 147v412
h76v-412c0 -57 23 -109 61 -147s90 -61 147 -61h215c114 0 207 94 207 208v412z" />
    <glyph glyph-name="afii10017" unicode="&#x410;" horiz-adv-x="1071" 
d="M923 610c51 -52 83 -123 83 -201v-409h-76v318h-754v-318h-76v409c0 157 129 284 284 284h338c78 0 149 -32 201 -83zM176 394h754v17c0 113 -95 206 -208 206h-340c-112 0 -206 -94 -206 -208v-15z" />
    <glyph glyph-name="afii10019" unicode="&#x412;" horiz-adv-x="1105" 
d="M945 373l-21 -15c51 -36 85 -95 85 -159c0 -111 -99 -199 -210 -199h-699v693h696c81 0 160 -39 195 -111c12 -24 18 -49 18 -74c0 -51 -23 -102 -64 -135zM176 617v-219h624c62 0 133 43 133 109c0 70 -71 110 -137 110h-620zM923 152c7 15 10 31 10 46
c0 66 -61 123 -132 123h-625v-245h625c51 0 102 31 122 76z" />
    <glyph glyph-name="afii10022" unicode="&#x415;" horiz-adv-x="1062" 
d="M237 556c-38 -38 -61 -90 -61 -147v-25h793v-76h-793v-26c0 -113 95 -206 208 -206h585v-76h-585c-157 0 -284 129 -284 284v125c0 157 129 284 284 284h585v-76h-585c-57 0 -109 -23 -147 -61z" />
    <glyph glyph-name="afii10070" unicode="&#x435;" horiz-adv-x="1064" 
d="M100 173v310c1 118 104 209 223 209h448c117 0 219 -95 219 -212c0 -119 -104 -212 -223 -212h-591v-95c10 -68 77 -97 147 -97h614v-76h-619c-102 0 -214 65 -218 173zM187 533c-7 -15 -11 -32 -11 -50v-139h595c76 0 143 60 143 136c0 78 -70 136 -147 136h-444
c-59 0 -112 -31 -136 -83z" />
    <glyph glyph-name="afii10080" unicode="&#x43e;" horiz-adv-x="1248" 
d="M898 0h-514c-157 0 -284 127 -284 284v125c0 156 127 284 284 284h514c157 0 285 -128 285 -284v-125c0 -157 -128 -284 -285 -284zM176 409v-125c0 -114 94 -208 208 -208h514c115 0 209 94 209 208v125c0 114 -94 208 -209 208h-514c-114 0 -208 -94 -208 -208z" />
    <glyph glyph-name="afii10082" unicode="&#x440;" horiz-adv-x="1111" 
d="M177 269v-269h-77v693h728c115 0 218 -97 218 -212c0 -118 -106 -212 -223 -212h-646zM177 345h648c77 0 143 61 145 136c-2 76 -69 136 -147 136h-646v-272z" />
    <glyph glyph-name="afii10034" unicode="&#x420;" horiz-adv-x="1111" 
d="M177 269v-269h-77v693h728c115 0 218 -97 218 -212c0 -118 -106 -212 -223 -212h-646zM177 345h648c77 0 143 61 145 136c-2 76 -69 136 -147 136h-646v-272z" />
    <glyph glyph-name="afii10035" unicode="&#x421;" horiz-adv-x="1034" 
d="M184 83c-52 52 -84 123 -84 201v125c0 156 128 284 285 284h584v-76h-584c-115 0 -208 -94 -209 -208v-125c0 -113 93 -208 207 -208h586v-76h-584c-78 0 -150 32 -201 83z" />
    <glyph glyph-name="afii10036" unicode="&#x422;" horiz-adv-x="1031" 
d="M966 693v-76h-395v-617h-76v617h-395v76h866z" />
    <glyph glyph-name="afii10084" unicode="&#x442;" horiz-adv-x="1508" 
d="M1159 693c156 0 284 -128 284 -285v-408h-76v408c0 113 -93 209 -206 209h-384v-617h-76v617h-525v-617h-76v693h1059z" />
    <glyph glyph-name="afii10032" unicode="&#x41e;" horiz-adv-x="1248" 
d="M898 0h-514c-157 0 -284 127 -284 284v125c0 156 127 284 284 284h514c157 0 285 -128 285 -284v-125c0 -157 -128 -284 -285 -284zM176 409v-125c0 -114 94 -208 208 -208h514c115 0 209 94 209 208v125c0 114 -94 208 -209 208h-514c-114 0 -208 -94 -208 -208z" />
    <glyph glyph-name="afii10031" unicode="&#x41d;" horiz-adv-x="1015" 
d="M873 693h77v-693h-77v335h-697v-335h-76v693h76v-282h697v282z" />
    <glyph glyph-name="afii10030" unicode="&#x41c;" horiz-adv-x="1122" 
d="M604 -2h-24h-28l-255 586c-15 23 -31 32 -59 32c-29 -1 -61 -22 -62 -53v-563h-76v567s1 12 5 25c17 54 64 96 125 100h24c53 0 102 -46 118 -89l206 -475l207 475c17 46 62 88 116 89h25c66 -1 129 -64 131 -125v-567h-76v563c-8 31 -23 50 -57 55l-8 1
c-33 0 -55 -28 -60 -43z" />
    <glyph glyph-name="afii10065" unicode="&#x430;" horiz-adv-x="1083" 
d="M990 -1l-668 1c-90 0 -169 50 -204 128c-12 26 -18 54 -18 83c0 119 102 212 218 212h596v47c-1 81 -68 146 -148 147h-503v76h503c124 0 223 -100 224 -223v-471zM240 323c-40 -25 -64 -65 -64 -112c1 -76 66 -135 142 -135h596v271h-592c-30 0 -59 -9 -82 -24z" />
    <glyph glyph-name="afii10083" unicode="&#x441;" horiz-adv-x="1034" 
d="M184 83c-52 52 -84 123 -84 201v125c0 156 128 284 285 284h584v-76h-584c-115 0 -208 -94 -209 -208v-125c0 -113 93 -208 207 -208h586v-76h-584c-78 0 -150 32 -201 83z" />
    <glyph glyph-name="afii10087" unicode="&#x445;" 
d="M737 324h-311c-193 0 -231 -54 -231 -195v-129h-65v135c0 129 42 192 148 220c-100 23 -148 98 -148 231v114h65v-104c0 -153 40 -210 231 -210h311c191 0 231 57 231 210v104h65v-114c0 -133 -48 -208 -148 -231c106 -28 148 -91 148 -220v-135h-65v129
c0 141 -38 195 -231 195z" />
    <glyph glyph-name="afii10039" unicode="&#x425;" horiz-adv-x="1017" 
d="M868 304c52 -52 84 -123 84 -201v-103h-76v103c0 113 -93 208 -207 208h-285c-113 0 -208 -93 -208 -206v-105h-76v103c0 78 32 149 84 201c17 17 37 32 58 45c-21 12 -41 27 -58 45c-52 52 -84 123 -84 201v98h76v-98c0 -113 93 -208 207 -208h293c110 0 200 96 200 206
v100h76v-98c0 -78 -32 -149 -84 -201c-18 -18 -37 -33 -59 -45c22 -13 41 -28 59 -45z" />
    <glyph glyph-name="afii10049" unicode="&#x42f;" horiz-adv-x="1124" 
d="M167 331c-42 39 -67 92 -67 150c0 73 40 139 100 177c35 22 78 35 123 35h722v-693h-76v269h-587l-201 -269h-95l203 272c-47 7 -90 28 -122 59zM969 345v272h-646c-77 0 -147 -59 -147 -136c0 -76 68 -136 143 -136h650z" />
    <glyph glyph-name="afii10028" unicode="&#x41a;" horiz-adv-x="1040" 
d="M970 599c0 -105 -58 -197 -143 -246c85 -50 143 -142 143 -247v-106h-76v106c-1 115 -94 208 -209 208h-509v-314h-76v701h76v-310h509c115 0 208 94 209 208v102h76v-102z" />
    <glyph glyph-name="afii10076" unicode="&#x43a;" horiz-adv-x="833" 
 />
    <glyph glyph-name="afii10081" unicode="&#x43f;" horiz-adv-x="1017" 
d="M100 693h568c156 0 284 -128 284 -285v-408h-76v408c0 113 -93 209 -206 209h-494v-617h-76v693z" />
    <glyph glyph-name="afii10033" unicode="&#x41f;" horiz-adv-x="833" 
 />
    <glyph glyph-name="afii10085" unicode="&#x443;" horiz-adv-x="1017" 
d="M876 693h76v-409c0 -156 -127 -284 -284 -284h-514v76h514c114 0 208 94 208 208v16h-492c-156 0 -284 128 -284 285v108h76v-108c0 -113 93 -209 206 -209h494v317z" />
    <glyph glyph-name="afii10023" unicode="&#x401;" horiz-adv-x="1062" 
d="M237 556c-38 -38 -61 -90 -61 -147v-25h793v-76h-793v-26c0 -113 95 -206 208 -206h585v-76h-585c-157 0 -284 129 -284 284v125c0 157 129 284 284 284h585v-76h-585c-57 0 -109 -23 -147 -61zM502 783h-86v90h86v-90zM792 783h-86v90h86v-90z" />
    <glyph glyph-name="afii10056" unicode="&#x407;" horiz-adv-x="833" 
 />
    <glyph glyph-name="afii10071" unicode="&#x451;" horiz-adv-x="1064" 
d="M100 173v310c1 118 104 209 223 209h448c117 0 219 -95 219 -212c0 -119 -104 -212 -223 -212h-591v-95c10 -68 77 -97 147 -97h614v-76h-619c-102 0 -214 65 -218 173zM187 533c-7 -15 -11 -32 -11 -50v-139h595c76 0 143 60 143 136c0 78 -70 136 -147 136h-444
c-59 0 -112 -31 -136 -83zM430 790h-86v90h86v-90zM720 790h-86v90h86v-90z" />
    <glyph glyph-name="afii10054" unicode="&#x405;" horiz-adv-x="1018" 
d="M761 0h-661v76h661c64 0 116 52 116 116c0 65 -51 117 -116 117h-507c-105 0 -192 85 -192 192c0 108 85 193 192 194h661v-76h-661c-66 0 -113 -53 -116 -116c5 -66 53 -118 116 -118h507c106 0 192 -86 192 -192c0 -107 -85 -193 -192 -193z" />
    <glyph glyph-name="afii10102" unicode="&#x455;" horiz-adv-x="1018" 
d="M761 0h-661v76h661c64 0 116 52 116 116c0 65 -51 117 -116 117h-507c-105 0 -192 85 -192 192c0 108 85 193 192 194h661v-76h-661c-66 0 -113 -53 -116 -116c5 -66 53 -118 116 -118h507c106 0 192 -86 192 -192c0 -107 -85 -193 -192 -193z" />
    <glyph glyph-name="afii10105" unicode="&#x458;" horiz-adv-x="1060" 
d="M224 617v76h728v-409c0 -78 -32 -149 -84 -201c-51 -51 -122 -83 -200 -83h-283c-79 0 -150 32 -201 83c-52 52 -84 123 -84 201v59h76v-59c0 -113 93 -208 207 -208h285c113 0 208 93 208 206v335h-652z" />
    <glyph glyph-name="afii10104" unicode="&#x457;" horiz-adv-x="465" 
d="M131 790h-86v90h86v-90zM421 790h-86v90h86v-90z" />
    <glyph glyph-name="afii10061" unicode="&#x40c;" horiz-adv-x="1040" 
d="M970 599c0 -105 -58 -197 -143 -246c85 -50 143 -142 143 -247v-106h-76v106c-1 115 -94 208 -209 208h-509v-314h-76v701h76v-310h509c115 0 208 94 209 208v102h76v-102zM588 951l54 -54l-190 -189l-54 54z" />
    <glyph glyph-name="afii10079" unicode="&#x43d;" horiz-adv-x="1015" 
d="M873 693h77v-693h-77v335h-697v-335h-76v693h76v-282h697v282z" />
    <glyph glyph-name="AE" unicode="&#xc6;" horiz-adv-x="2133" 
d="M923 610c51 -52 83 -123 83 -201v-409h-76v318h-754v-318h-76v409c0 157 129 284 284 284h338c78 0 149 -32 201 -83zM176 394h754v17c0 113 -95 206 -208 206h-340c-112 0 -206 -94 -206 -208v-15zM1308 556c-38 -38 -61 -90 -61 -147v-25h793v-76h-793v-26
c0 -113 95 -206 208 -206h585v-76h-585c-157 0 -284 129 -284 284v125c0 157 129 284 284 284h585v-76h-585c-57 0 -109 -23 -147 -61z" />
    <glyph glyph-name="fl" unicode="&#xfb02;" horiz-adv-x="2002" 
d="M237 555c-38 -37 -61 -89 -61 -147v-27h747v-76h-747v-305h-76v408c0 79 32 150 83 201c52 52 123 84 201 84h584v-76h-584c-57 0 -109 -24 -147 -62zM1209 693h-76v-408c0 -79 32 -150 83 -201c52 -52 123 -84 201 -84h584v76h-584c-57 0 -109 24 -147 62
c-38 37 -61 89 -61 147v408z" />
    <glyph glyph-name="Lacute" unicode="&#x139;" horiz-adv-x="1033" 
d="M100 693h76v-408c0 -58 23 -110 61 -147c38 -38 90 -62 147 -62h584v-76h-584c-78 0 -149 32 -201 84c-51 51 -83 122 -83 201v408zM584 959l54 -54l-190 -189l-54 54z" />
    <glyph glyph-name="Lcommaaccent" unicode="&#x13b;" horiz-adv-x="1033" 
d="M100 693h76v-408c0 -58 23 -110 61 -147c38 -38 90 -62 147 -62h584v-76h-584c-78 0 -149 32 -201 84c-51 51 -83 122 -83 201v408zM507 -183l-69 32l87 186l69 -32z" />
    <glyph glyph-name="lacute" unicode="&#x13a;" horiz-adv-x="969" 
d="M100 693h76v-408c0 -58 23 -110 61 -147c38 -38 90 -62 147 -62h584v-76h-584c-78 0 -149 32 -201 84c-51 51 -83 122 -83 201v408zM552 958l54 -54l-190 -189l-54 54z" />
    <glyph glyph-name="lcommaaccent" unicode="&#x13c;" horiz-adv-x="969" 
d="M100 693h76v-408c0 -58 23 -110 61 -147c38 -38 90 -62 147 -62h584v-76h-584c-78 0 -149 32 -201 84c-51 51 -83 122 -83 201v408zM475 -183l-69 32l87 186l69 -32z" />
    <glyph glyph-name="Tcaron" unicode="&#x164;" horiz-adv-x="1031" 
d="M966 693v-76h-395v-617h-76v617h-395v76h866zM515 830l284 135l33 -69l-317 -150l-317 150l33 69z" />
    <glyph glyph-name="tcaron" unicode="&#x165;" horiz-adv-x="1329" 
d="M838 520v76h-662v97h-76v-408c0 -79 32 -150 83 -201c52 -52 123 -84 201 -84h584v76h-584c-57 0 -109 24 -147 62c-38 37 -61 89 -61 147v235h662zM1208 477h-85l61 223h85z" />
    <glyph glyph-name="guillemotleft" unicode="&#xab;" horiz-adv-x="0" 
 />
    <glyph glyph-name="guilsinglleft" unicode="&#x2039;" horiz-adv-x="0" 
 />
    <glyph glyph-name="guilsinglright" unicode="&#x203a;" horiz-adv-x="0" 
 />
    <glyph glyph-name="guillemotright" unicode="&#xbb;" horiz-adv-x="0" 
 />
    <glyph glyph-name="registered" unicode="&#xae;" horiz-adv-x="0" 
 />
    <glyph glyph-name="registered.alt" horiz-adv-x="0" 
 />
    <glyph glyph-name="trademark" unicode="&#x2122;" horiz-adv-x="2153" 
d="M966 693v-76h-395v-617h-76v617h-395v76h866zM1611 -2h24l252 578c5 15 27 43 60 43l8 -1c34 -5 49 -24 57 -55v-563h76v567c-2 61 -65 124 -131 125h-25c-54 -1 -99 -43 -116 -89l-207 -475l-206 475c-16 43 -65 89 -118 89h-24c-61 -4 -108 -46 -125 -100
c-4 -13 -5 -25 -5 -25v-567h76v563c1 31 33 52 62 53c28 0 44 -9 59 -32l255 -586h28z" />
    <glyph glyph-name="trademark.alt" horiz-adv-x="2153" 
d="M966 693v-76h-395v-617h-76v617h-395v76h866zM1611 -2h24l252 578c5 15 27 43 60 43l8 -1c34 -5 49 -24 57 -55v-563h76v567c-2 61 -65 124 -131 125h-25c-54 -1 -99 -43 -116 -89l-207 -475l-206 475c-16 43 -65 89 -118 89h-24c-61 -4 -108 -46 -125 -100
c-4 -13 -5 -25 -5 -25v-567h76v563c1 31 33 52 62 53c28 0 44 -9 59 -32l255 -586h28z" />
    </font>
</defs>
</svg>
